<svg id="Layer_1" data-name="Layer 1" xmlns="http://www.w3.org/2000/svg" viewBox="0 0 100 17.84"><defs><style>.cls-1{fill:#ff7d08;}.cls-2{fill:#fff;}</style></defs><title>Investis_Digital_WHITE_ORANGE_RGB</title><path class="cls-1" d="M60.3,10.61a2.81,2.81,0,0,1-.62,1,3,3,0,0,1-.94.67,3,3,0,0,1-1.2.24,3.06,3.06,0,0,1-1.25-.24,2.7,2.7,0,0,1-.92-.67,3.17,3.17,0,0,1-.57-1,4,4,0,0,1,0-2.51,3,3,0,0,1,.57-1,2.75,2.75,0,0,1,.92-.69,3.1,3.1,0,0,1,1.25-.25,2.84,2.84,0,0,1,1.2.25,2.88,2.88,0,0,1,.94.67,2.94,2.94,0,0,1,.62,1,3.59,3.59,0,0,1,0,2.53M60.39,0V6.29a3.58,3.58,0,0,0-1.2-1,4,4,0,0,0-1.77-.43,4.45,4.45,0,0,0-1.78.35,4.11,4.11,0,0,0-1.36,1,4.18,4.18,0,0,0-.87,1.42,4.83,4.83,0,0,0-.31,1.76,4.9,4.9,0,0,0,.31,1.76,4.28,4.28,0,0,0,.87,1.42,4.19,4.19,0,0,0,1.36.94,4.45,4.45,0,0,0,1.78.35,4,4,0,0,0,1.77-.42,3.41,3.41,0,0,0,1.2-1v1.18h1.44V0Z"/><path class="cls-1" d="M98.94,13.71a1,1,0,0,1-.78-.33,1.11,1.11,0,0,1,0-1.5,1.05,1.05,0,0,1,1.55,0,1.11,1.11,0,0,1,0,1.5,1,1,0,0,1-.77.33"/><path class="cls-1" d="M83.46,13.71a3.08,3.08,0,0,1-.72-.09,1.79,1.79,0,0,1-.73-.36,1.94,1.94,0,0,1-.55-.72,2.73,2.73,0,0,1-.21-1.16v-5H79.57V5.08h1.68V2.75h1.44V5.08H85V6.35H82.69V11a2.42,2.42,0,0,0,.08.72.84.84,0,0,0,.22.41.7.7,0,0,0,.33.2,1.83,1.83,0,0,0,.93,0,2.5,2.5,0,0,0,.48-.18l.18-.09L85,13.42l-.09,0a3.69,3.69,0,0,1-.67.19,4.59,4.59,0,0,1-.76.06"/><rect class="cls-1" x="94.64" width="1.44" height="13.61"/><rect class="cls-1" x="76.7" y="5.08" width="1.44" height="8.52"/><rect class="cls-1" x="63.44" y="5.08" width="1.44" height="8.52"/><path class="cls-1" d="M91.58,10a3,3,0,0,1-.17,1,2.71,2.71,0,0,1-.47.83,2.31,2.31,0,0,1-.77.57,2.54,2.54,0,0,1-1.06.21,3,3,0,0,1-.66-.08,1.81,1.81,0,0,1-.57-.24,1.3,1.3,0,0,1-.4-.44,1.4,1.4,0,0,1-.15-.68,1.08,1.08,0,0,1,.34-.84,2.44,2.44,0,0,1,.93-.51,6.24,6.24,0,0,1,1.31-.24c.48,0,1-.06,1.45-.06h.22Zm1.5,3.49a7.4,7.4,0,0,1-.1-.85c0-.33,0-.66,0-1V8a3.42,3.42,0,0,0-.26-1.37,2.57,2.57,0,0,0-.71-1,3.15,3.15,0,0,0-1-.58,4.33,4.33,0,0,0-1.27-.19,5.08,5.08,0,0,0-1.91.35,4.13,4.13,0,0,0-1.37.87l-.08.09.83,1,.1-.1a2.88,2.88,0,0,1,1-.67,3.32,3.32,0,0,1,1.3-.26,2.2,2.2,0,0,1,1.53.49,2,2,0,0,1,.51,1.5v.13c-.69,0-1.37,0-2,.08a7.58,7.58,0,0,0-1.86.36,3,3,0,0,0-1.33.87,2.4,2.4,0,0,0-.51,1.6,2.53,2.53,0,0,0,.29,1.24,2.46,2.46,0,0,0,.71.82,2.72,2.72,0,0,0,.94.45,4,4,0,0,0,1,.14,3.83,3.83,0,0,0,1.75-.38,3.52,3.52,0,0,0,1.11-1c0,.12,0,.24,0,.36s.06.46.09.66l0,.11h1.32Z"/><path class="cls-1" d="M73.63,10.51a3,3,0,0,1-.62,1,2.74,2.74,0,0,1-1,.62,3.38,3.38,0,0,1-2.45,0,2.69,2.69,0,0,1-.91-.67,3.1,3.1,0,0,1-.58-1,3.64,3.64,0,0,1,0-2.38,3.1,3.1,0,0,1,.58-1,2.72,2.72,0,0,1,.91-.68,3.13,3.13,0,0,1,1.25-.25,3,3,0,0,1,1.2.25,3.13,3.13,0,0,1,1.57,1.66,3.15,3.15,0,0,1,.22,1.19,3.46,3.46,0,0,1-.22,1.27m.08-5.43v1.2a3.38,3.38,0,0,0-1.18-1,4,4,0,0,0-1.79-.44A4.37,4.37,0,0,0,69,5.22a4,4,0,0,0-1.36,1,4.21,4.21,0,0,0-.88,1.4,4.58,4.58,0,0,0-.31,1.7A4.67,4.67,0,0,0,66.73,11a4.12,4.12,0,0,0,.88,1.38,4,4,0,0,0,1.36.9,4.54,4.54,0,0,0,1.77.33,4,4,0,0,0,1.8-.44,3.21,3.21,0,0,0,1.17-.95v1.19a4,4,0,0,1-.17,1.22,2.42,2.42,0,0,1-1.45,1.65A4,4,0,0,1,69,16.1a3.87,3.87,0,0,1-1.28-1.05l-.09-.12-1,1.12.09.09a5.3,5.3,0,0,0,1.79,1.25,5.48,5.48,0,0,0,2.2.45,5.12,5.12,0,0,0,2.26-.43,3.93,3.93,0,0,0,1.38-1.1,3.65,3.65,0,0,0,.7-1.44,6,6,0,0,0,.19-1.46V5.08Z"/><path class="cls-1" d="M77.42,3a1,1,0,0,1-.66-.28.91.91,0,0,1-.3-.7.93.93,0,0,1,.3-.71.94.94,0,0,1,1.32,0,.93.93,0,0,1,.3.71.91.91,0,0,1-.3.7,1,1,0,0,1-.66.28"/><path class="cls-1" d="M64.15,3a.94.94,0,0,1-.65-.28.92.92,0,0,1-.31-.7.94.94,0,0,1,.31-.71.92.92,0,0,1,.65-.27,1,1,0,0,1,.66.27.93.93,0,0,1,.3.71.91.91,0,0,1-.3.7,1,1,0,0,1-.66.28"/><rect class="cls-2" x="0.24" y="5.08" width="1.44" height="8.52"/><path class="cls-2" d="M1.62,1.33A1,1,0,0,0,1,1.06a1,1,0,0,0-.66.27A.93.93,0,0,0,0,2a.91.91,0,0,0,.3.7A1,1,0,0,0,1,3a1,1,0,0,0,.66-.28.91.91,0,0,0,.3-.7.93.93,0,0,0-.3-.71"/><path class="cls-2" d="M7.3,4.87a3.39,3.39,0,0,0-1.71.47,3,3,0,0,0-1,.88V6c0-.27,0-.53-.06-.75V5.08H3.16v.15c0,.27,0,.59.05.94s0,.65,0,.86v6.58H4.67V9.24a4.17,4.17,0,0,1,.21-1.4,3,3,0,0,1,.52-1,2.24,2.24,0,0,1,.75-.56A2.11,2.11,0,0,1,7,6.14a2.25,2.25,0,0,1,1,.2,1.47,1.47,0,0,1,.63.55A2.31,2.31,0,0,1,9,7.75a6.66,6.66,0,0,1,.1,1.15v4.71h1.43V8.41a3.94,3.94,0,0,0-.8-2.56,3,3,0,0,0-2.41-1"/><polygon class="cls-2" points="15.23 11.89 12.67 5.08 11.07 5.08 14.49 13.61 15.96 13.61 19.36 5.08 17.81 5.08 15.23 11.89"/><path class="cls-2" d="M21.07,8.58a3,3,0,0,1,.24-.83,3,3,0,0,1,.58-.83,2.71,2.71,0,0,1,.84-.57,2.58,2.58,0,0,1,1-.21,2.34,2.34,0,0,1,1.86.73,2.83,2.83,0,0,1,.69,1.71Zm5.69-2.45a3.42,3.42,0,0,0-1.25-.92,4.32,4.32,0,0,0-1.74-.34,4.18,4.18,0,0,0-1.66.34,4.06,4.06,0,0,0-1.34.94,4.23,4.23,0,0,0-.89,1.42,4.7,4.7,0,0,0-.32,1.78,4.77,4.77,0,0,0,.33,1.78,4.2,4.2,0,0,0,.9,1.41,4,4,0,0,0,1.37.94,4.23,4.23,0,0,0,1.72.34A4.32,4.32,0,0,0,27.46,12l.08-.1L26.44,11l-.07.12a3.1,3.1,0,0,1-1,1,2.75,2.75,0,0,1-1.51.41,2.72,2.72,0,0,1-1.11-.22,3,3,0,0,1-.9-.62,2.8,2.8,0,0,1-.59-.91,3,3,0,0,1-.23-1h6.7l0-.11c0-.11,0-.22,0-.32V9.1a5.06,5.06,0,0,0-.25-1.63,4,4,0,0,0-.77-1.34"/><path class="cls-2" d="M41.13,12.18a2.88,2.88,0,0,1-.49.18,1.83,1.83,0,0,1-.93,0,.7.7,0,0,1-.33-.2.84.84,0,0,1-.22-.41,2.81,2.81,0,0,1-.08-.72V6.35h2.29V5.08H39.08V2.75H37.64V5.08H36V6.35h1.68v5a2.73,2.73,0,0,0,.21,1.16,2.05,2.05,0,0,0,.55.72,1.79,1.79,0,0,0,.73.36,3.08,3.08,0,0,0,.72.09,4.51,4.51,0,0,0,.76-.06,3.69,3.69,0,0,0,.67-.19l.09,0-.07-1.33Z"/><path class="cls-2" d="M44.12,1.33a.92.92,0,0,0-.65-.27,1,1,0,0,0-.66.27.93.93,0,0,0-.3.71.91.91,0,0,0,.3.7,1,1,0,0,0,.66.28.94.94,0,0,0,.65-.28.88.88,0,0,0,.31-.7.9.9,0,0,0-.31-.71"/><rect class="cls-2" x="42.75" y="5.08" width="1.44" height="8.52"/><path class="cls-1" d="M51.23,9.48A3.43,3.43,0,0,0,50.4,9L49,10a5.8,5.8,0,0,1,1,.38.93.93,0,0,1,.55.87,1.25,1.25,0,0,1-.14.61,1.35,1.35,0,0,1-.38.41,1.4,1.4,0,0,1-.56.22,3.2,3.2,0,0,1-.7.07,2.43,2.43,0,0,1-1.27-.35,2.81,2.81,0,0,1-.68-.59l-1.14.83a3.33,3.33,0,0,0,1.27,1,4.55,4.55,0,0,0,1.84.4,4.79,4.79,0,0,0,1.13-.14,2.78,2.78,0,0,0,1-.46,2.51,2.51,0,0,0,.74-.84A2.54,2.54,0,0,0,52,11.13,2,2,0,0,0,51.23,9.48Z"/><path class="cls-2" d="M46.68,9.13a2.83,2.83,0,0,0,.62.33l1.35-1a3.62,3.62,0,0,1-1-.41.86.86,0,0,1-.41-.78,1,1,0,0,1,.13-.52,1,1,0,0,1,.35-.36,1.37,1.37,0,0,1,.51-.21,2.44,2.44,0,0,1,.59-.07,2.09,2.09,0,0,1,1.79.94l1.11-.82a2.84,2.84,0,0,0-1.14-1,4,4,0,0,0-1.7-.4A4.13,4.13,0,0,0,47.75,5a3.09,3.09,0,0,0-1,.45,2.2,2.2,0,0,0-.69.79,2.37,2.37,0,0,0-.26,1.14,2,2,0,0,0,.25,1A2.23,2.23,0,0,0,46.68,9.13Z"/><path class="cls-2" d="M34.48,9.48a5.12,5.12,0,0,0-2.18-.9,4.37,4.37,0,0,1-1.43-.5.88.88,0,0,1-.41-.78,1.08,1.08,0,0,1,.13-.52,1.2,1.2,0,0,1,.35-.36,1.42,1.42,0,0,1,.52-.21,2.32,2.32,0,0,1,.59-.07,2.1,2.1,0,0,1,1.14.31,1.93,1.93,0,0,1,.64.63L35,6.26a2.8,2.8,0,0,0-1.15-1,3.93,3.93,0,0,0-1.7-.4A4,4,0,0,0,31,5a3,3,0,0,0-1,.45,2.2,2.2,0,0,0-.69.79,2.37,2.37,0,0,0-.26,1.14,2.08,2.08,0,0,0,.24,1,2.26,2.26,0,0,0,.61.69,2.94,2.94,0,0,0,.79.4c.28.09.54.17.78.23a7.81,7.81,0,0,1,1.75.59.94.94,0,0,1,.54.87,1.15,1.15,0,0,1-.14.61,1.21,1.21,0,0,1-.37.41,1.46,1.46,0,0,1-.56.22,3.2,3.2,0,0,1-.7.07,2.43,2.43,0,0,1-1.27-.35,2.63,2.63,0,0,1-.68-.59l-1.15.83a3.36,3.36,0,0,0,1.28,1,4.54,4.54,0,0,0,1.83.4,4.79,4.79,0,0,0,1.13-.14,2.83,2.83,0,0,0,1-.46,2.51,2.51,0,0,0,.74-.84,2.54,2.54,0,0,0,.28-1.25A2,2,0,0,0,34.48,9.48Z"/></svg>