<?xml version="1.0" encoding="utf-8"?>
<!-- Generator: Adobe Illustrator 23.0.3, SVG Export Plug-In . SVG Version: 6.00 Build 0)  -->
<svg version="1.1" id="Layer_1" xmlns="http://www.w3.org/2000/svg" xmlns:xlink="http://www.w3.org/1999/xlink" x="0px" y="0px"
	 viewBox="0 0 180.9 57.62" style="enable-background:new 0 0 180.9 57.62;" xml:space="preserve">
<style type="text/css">
	.st0{fill:#312A70;}
	.st1{fill:#1E1E1E;}
</style>
<g>
	<g>
		<path class="st0" d="M50.13,42.82c0-0.01,0-0.02,0-0.03V14.84c0-0.01,0-0.02,0-0.03c0-0.05-0.01-0.1-0.02-0.16
			c0-0.02-0.01-0.04-0.01-0.05c-0.02-0.06-0.04-0.13-0.08-0.19c-0.04-0.06-0.08-0.11-0.12-0.16c-0.01-0.01-0.03-0.03-0.04-0.04
			c-0.04-0.03-0.08-0.07-0.12-0.09c-0.01-0.01-0.02-0.02-0.03-0.02L25.5,0.12c-0.01-0.01-0.02-0.01-0.03-0.01
			c-0.05-0.02-0.09-0.04-0.15-0.06c-0.02-0.01-0.03-0.01-0.05-0.02C25.2,0.01,25.14,0,25.07,0s-0.14,0.01-0.2,0.03
			c-0.02,0-0.03,0.01-0.05,0.02c-0.05,0.02-0.1,0.04-0.15,0.06c-0.01,0.01-0.02,0.01-0.03,0.01L0.43,14.09
			c-0.01,0.01-0.02,0.02-0.03,0.02c-0.04,0.03-0.08,0.06-0.12,0.09c-0.01,0.01-0.03,0.03-0.04,0.04c-0.05,0.05-0.09,0.1-0.12,0.16
			c-0.04,0.06-0.06,0.12-0.08,0.19c0,0.02-0.01,0.03-0.01,0.05C0.01,14.7,0.01,14.75,0,14.8c0,0.01,0,0.02,0,0.03v27.95
			c0,0.01,0,0.02,0,0.03c0,0.05,0.01,0.1,0.02,0.16c0,0.02,0.01,0.03,0.01,0.05c0.02,0.06,0.04,0.13,0.08,0.19
			c0,0.01,0.01,0.01,0.01,0.02c0.04,0.06,0.08,0.11,0.13,0.16c0.03,0.03,0.07,0.06,0.11,0.09c0.02,0.02,0.04,0.04,0.06,0.05l0.01,0
			c0,0,0,0,0,0l8.07,4.66c0,0,0,0,0,0l16.13,9.31c0.01,0.01,0.02,0.01,0.03,0.01c0.05,0.02,0.09,0.04,0.15,0.06
			c0.02,0.01,0.03,0.01,0.05,0.02c0.07,0.02,0.13,0.03,0.2,0.03s0.14-0.01,0.2-0.03c0.02,0,0.03-0.01,0.05-0.02
			c0.05-0.02,0.1-0.04,0.15-0.06c0.01-0.01,0.02-0.01,0.03-0.01l24.2-13.97c0,0,0,0,0,0l0.01,0c0.02-0.01,0.04-0.03,0.06-0.05
			c0.04-0.03,0.08-0.05,0.11-0.09c0.05-0.05,0.09-0.1,0.13-0.16c0-0.01,0.01-0.01,0.01-0.02c0.04-0.06,0.06-0.12,0.08-0.19
			c0.01-0.02,0.01-0.03,0.01-0.05C50.12,42.92,50.13,42.87,50.13,42.82z M1.73,16.33l6.34,3.66v17.64l-6.34,3.66V16.33z
			 M25.93,45.95v-7.32l15.27-8.82l6.34,3.66L25.93,45.95z M39.48,19.49l-6.34,3.66l-7.64-4.41c0,0,0,0,0,0l-7.64-4.41V7.01
			L39.48,19.49z M48.41,31.97l-5.48-3.16l5.48-3.16V31.97z M34,31.97v-7.32l7.21-4.16l6.34,3.66L34,31.97z M17.86,24.65l7.21-4.16
			l5.23,3.02l1.97,1.14v8.32l-3.9,2.25l-3.31,1.91l-7.21-4.16V24.65z M23.34,19.49L17,23.16L9.79,19v-7.32L23.34,19.49z M9.79,20.99
			l6.34,3.66v8.82v8.82l-6.34,3.66V20.99z M17.86,34.96l6.34,3.66v8.32l-6.34,3.66V34.96z M48.41,22.66l-5.48-3.16l5.48-3.16V22.66z
			 M41.2,18.5L25.93,9.68V2.36l21.62,12.48L41.2,18.5z M24.2,8.68l-5.48-3.16l5.48-3.16V8.68z M16.14,13.34l-5.48-3.16l5.48-3.16
			V13.34z M8.07,18l-5.48-3.16l5.48-3.16V18z M8.07,39.62v6.33l-5.48-3.16L8.07,39.62z M16.14,44.28v6.33l-5.48-3.16L16.14,44.28z
			 M24.2,48.94v6.33l-5.48-3.16L24.2,48.94z M25.93,47.94l15.27-8.82l6.34,3.66L25.93,55.27V47.94z M42.93,38.13l5.48-3.16v6.33
			L42.93,38.13z"/>
	</g>
</g>
<g>
	<g>
		<path class="st1" d="M71.66,10.98V29.6l-0.02,3c0,0.46-0.3,0.87-0.83,0.87h-4.24c-0.57,0-0.95-0.42-0.95-0.84V29.6V10.98v-3
			c0-0.46,0.3-0.87,0.83-0.87h4.26c0.57,0,0.95,0.42,0.95,0.84V10.98z"/>
	</g>
	<g>
		<path class="st1" d="M84.97,33.97c-1.48,0-3.61-0.91-4.64-1.98c-0.08,0.84-0.08,1.48-1.1,1.48h-2.96c-0.8,0-1.06-0.38-1.06-1.14
			V7.9c0-0.68,0.19-1.06,0.91-1.18l3.72-0.49c0.08,0,0.23-0.04,0.3-0.04c0.53,0,0.76,0.3,0.76,0.84v9c1.22-0.99,2.92-1.6,4.63-1.6
			c2.13,0,3.65,0.72,4.9,1.86c2.01,1.82,2.93,4.79,2.93,7.98C93.37,29.56,90.63,33.97,84.97,33.97z M84.1,19.3
			c-1.14,0-2.28,0.53-3.19,1.22v7.37c0.8,0.68,1.98,1.37,3.08,1.37c2.93,0,3.46-2.58,3.46-4.98C87.44,22,86.91,19.3,84.1,19.3z"/>
	</g>
	<g>
		<path class="st1" d="M101.92,33.97c-2.01,0-4.26-0.53-6.35-1.41c-0.42-0.15-0.53-0.42-0.53-0.68c0-0.15,0.04-0.3,0.08-0.46
			l0.76-2.39c0.15-0.49,0.3-0.68,0.57-0.68c0.15,0,0.34,0.04,0.61,0.15c1.86,0.76,3.65,1.18,5.01,1.18c1.22,0,2.05-0.49,2.05-1.33
			c0-0.72-0.38-1.1-1.79-1.63l-3.38-1.25c-2.05-0.76-3.88-2.58-3.88-5.32c0-4.07,3.88-5.7,7.26-5.7c1.98,0,3.95,0.3,5.96,1.22
			c0.34,0.15,0.53,0.34,0.53,0.65c0,0.11-0.04,0.27-0.08,0.42l-0.8,2.66c-0.08,0.3-0.34,0.46-0.65,0.46c-0.11,0-0.27-0.04-0.42-0.08
			c-1.44-0.53-3-0.91-4.22-0.91c-1.25,0-1.82,0.68-1.82,1.22c0,0.46,0.15,0.95,1.44,1.44l3.84,1.52c1.94,0.76,3.42,2.36,3.42,4.9
			C109.55,32.3,105.68,33.97,101.92,33.97z"/>
	</g>
	<g>
		<path class="st1" d="M124.12,32.98c-1.44,0.65-3.12,0.99-4.86,0.99c-2.13,0-3.84-0.49-4.86-1.71c-1.22-1.44-1.29-3-1.29-6.12
			v-7.29h-1.52c-0.91,0-1.06-0.23-1.06-1.25v-1.63c0-0.53,0.3-0.99,0.87-0.99h1.75v-3.99c0-0.76,0.49-0.91,1.18-0.99l3.42-0.46
			c0.08,0,0.15,0,0.23,0c0.57,0,0.87,0.3,0.87,0.99v4.45h4.1c0.53,0,0.91,0.23,0.91,0.8v2.2c0,0.57-0.38,0.87-0.91,0.87h-4.14v7.41
			c0,1.98,0.27,3.19,1.94,3.19c0.95,0,1.67-0.23,2.43-0.46c0.23-0.08,0.38-0.11,0.53-0.11c0.3,0,0.46,0.19,0.53,0.53l0.46,2.43
			c0.04,0.11,0.04,0.23,0.04,0.34C124.73,32.6,124.54,32.79,124.12,32.98z"/>
	</g>
	<g>
		<path class="st1" d="M134.69,33.97c-6.42,0-9.42-4.14-9.42-9.8c0-5.58,3.53-9.73,9.69-9.73c6.42,0,9.42,4.14,9.42,9.8
			C144.38,29.83,140.84,33.97,134.69,33.97z M134.88,18.92c-2.81,0-3.72,2.43-3.72,5.21c0,2.81,0.8,5.36,3.61,5.36
			c2.81,0,3.72-2.51,3.72-5.28C138.49,21.39,137.69,18.92,134.88,18.92z"/>
	</g>
	<g>
		<path class="st1" d="M161.18,32.83c-2.01,0.91-3.57,1.14-5.81,1.14c-5.78,0-9.31-3.46-9.31-9.46c0-6.16,3.69-10.07,9.73-10.07
			c1.79,0,3.5,0.27,5.28,1.03c0.34,0.15,0.49,0.3,0.49,0.68c0,0.15-0.04,0.27-0.08,0.42l-0.61,2.74c-0.08,0.38-0.27,0.53-0.49,0.53
			c-0.15,0-0.34-0.08-0.53-0.15c-1.06-0.42-2.17-0.72-3.34-0.72c-2.96,0-4.56,1.98-4.56,5.24c0,3.46,1.67,5.32,4.29,5.32
			c1.63,0,2.36-0.23,3.8-0.8c0.15-0.04,0.27-0.11,0.42-0.11c0.3,0,0.46,0.23,0.53,0.49c0.19,0.68,0.8,2.43,0.8,3.04
			C161.79,32.56,161.48,32.68,161.18,32.83z"/>
	</g>
	<g>
		<path class="st1" d="M180.1,33.47h-4.25c-0.8,0-1.33-0.19-1.75-0.91L169.88,25h-0.08v5.28v2.13c0,0.65-0.3,1.06-0.99,1.06h-3.69
			c-0.65,0-1.03-0.38-1.03-1.03V7.79c0-0.65,0.27-0.99,0.91-1.06l3.61-0.49c0.15-0.04,0.3-0.04,0.42-0.04
			c0.49,0,0.76,0.23,0.76,0.99v6.38v8.81h0.08l4.22-6.8c0.34-0.53,0.61-0.61,1.25-0.61h4.1c0.42,0,0.65,0.19,0.65,0.49
			c0,0.15-0.04,0.34-0.19,0.53l-4.94,6.84l5.62,9.31c0.15,0.27,0.3,0.53,0.3,0.84C180.9,33.4,180.41,33.47,180.1,33.47z"/>
	</g>
</g>
<g>
	<path class="st0" d="M68.26,46.76c-0.05,0-1.06-0.02-1.1-0.02v3.97c0,0.2-0.1,0.33-0.33,0.33h-0.89c-0.21,0-0.31-0.12-0.31-0.35
		V40.03c0-0.23,0.08-0.35,0.31-0.35h2.16c1.55,0,2.84,0.35,3.6,1.25c0.46,0.54,0.73,1.3,0.73,2.21
		C72.42,45.61,70.54,46.76,68.26,46.76z M68.06,40.86h-0.91v4.72c0.05,0,1.02,0.02,1.06,0.02c1.6,0,2.66-0.72,2.66-2.41
		C70.87,41.38,69.68,40.86,68.06,40.86z"/>
	<path class="st0" d="M75.22,51.05h-0.81c-0.2,0-0.3-0.1-0.3-0.33V39.77c0-0.23,0.05-0.3,0.25-0.33l0.82-0.12c0.03,0,0.05,0,0.08,0
		c0.15,0,0.25,0.07,0.25,0.28v11.1C75.52,50.94,75.42,51.05,75.22,51.05z"/>
	<path class="st0" d="M83.08,50.74c-0.71,0.33-1.47,0.48-2.23,0.48c-2.59,0-3.84-1.68-3.84-4.14c0-2.42,1.47-4.17,3.94-4.17
		c0.71,0,1.53,0.18,2.11,0.48c0.12,0.05,0.17,0.12,0.17,0.21c0,0.05-0.02,0.08-0.03,0.13l-0.13,0.53c-0.03,0.12-0.08,0.2-0.18,0.2
		c-0.03,0-0.1-0.02-0.15-0.05c-0.51-0.23-1.07-0.41-1.72-0.41c-1.57,0-2.56,1.17-2.56,3.02c0,1.68,0.73,3.13,2.49,3.13
		c0.71,0,1.32-0.16,1.85-0.39c0.05-0.02,0.1-0.03,0.13-0.03c0.08,0,0.13,0.05,0.17,0.16l0.15,0.46c0.02,0.06,0.03,0.13,0.03,0.18
		C83.27,50.62,83.22,50.67,83.08,50.74z"/>
</g>
</svg>
