<svg width="83" height="80" viewBox="0 0 83 80" fill="none" xmlns="http://www.w3.org/2000/svg">
<path d="M28.8906 2.11583C33.782 -0.705278 39.8085 -0.705278 44.6999 2.11583L65.6858 16.3108C78.0585 25.1698 60.767 32.8397 58.3867 28.6261C54.2339 21.2745 46.3419 16.3108 37.2893 16.3108C23.9196 16.3108 13.0813 27.1378 13.0813 40.4935C13.0813 53.8493 23.9196 64.6763 37.2893 64.6763C50.6402 64.6763 61.4668 53.8797 61.4972 40.5499H73.5905V52.1036C73.5905 57.7458 70.5773 62.9595 65.6858 65.7806L44.6999 77.8842C39.8085 80.7053 33.782 80.7053 28.8906 77.8842L7.90465 65.7806C3.01322 62.9595 0 57.7458 0 52.1036V27.8964C0 22.2542 3.01322 17.0405 7.90465 14.2194L28.8906 2.11583Z" fill="#FD3737"/>
<path d="M30.6311 46.4308C30.6315 43.1382 33.301 40.4694 36.5936 40.4697L77.0382 40.4744C80.3307 40.4748 82.9996 43.1443 82.9992 46.4368V46.4368C82.9988 49.7294 80.3294 52.3983 77.0368 52.3979L36.5922 52.3932C33.2996 52.3929 30.6308 49.7234 30.6311 46.4308V46.4308Z" fill="#61A9E0"/>
</svg>
