<svg version="1.1" id="Layer_1" xmlns="http://www.w3.org/2000/svg" xmlns:xlink="http://www.w3.org/1999/xlink" x="0px" y="0px" width="664.5px" height="469.9px" viewBox="0 0 664.5 469.9" style="enable-background:new 0 0 664.5 469.9;" xml:space="preserve">
<style type="text/css">

.st0{fill:#FFFFFF;stroke:#FFFFFF;stroke-width:3.6349;stroke-miterlimit:10;}
	.st1{fill:#FFFFFF;}
	.st2{fill:#D1D3D4;}
	.st3{fill:#D1D3D4;}

</style>
<g id="Layer_1_1_">
	<g>
		<g id="shape">
			<g id="back">
				<path class="st3" d="M371.3,142.6c0,13.9-0.1,27.7,0.1,41.6c0,3-0.7,3.8-3.7,3.7c-22-1-44-1.8-66-2.5c-2.8-0.1-3.6-0.8-3.6-3.8
					c-0.3-23.4-0.8-46.9-1.3-70.3c-0.1-2.6,0.1-3.9,3.3-4.3c22.4-3,44.8-6.3,67.2-9.6c3.4-0.5,4.3,0.4,4.2,3.9
					C371.1,115.1,371.3,128.9,371.3,142.6"></path>
				<path class="st3" d="M295.8,194.5c14.9,0.5,29.8,1,44.8,1.4c2.1,0.1,3,0.6,2.9,3c-0.3,11.8-0.4,23.7-0.6,35.5
					c0,3-2.3,4.9-5.1,4.4c-1.4-0.3-0.9-1.3-0.9-2c-0.1-2.9-0.1-5.8,0-8.7c0.1-3-1.1-4.4-4-4.6c-8.4-0.6-16.8-1.3-25.2-1.9
					c-19.2-1.3-38.3-2.7-57.5-3.9c-2.3-0.1-2.5-1.3-2.5-3.1c0.1-6.2,0.2-12.4,0.1-18.5c-0.1-2.6,0.6-3.4,3.3-3.3
					C266,193.5,280.9,194,295.8,194.5L295.8,194.5"></path>
				<path class="st3" d="M493.1,206.3c-7.7,0-15.4-0.1-23.1,0c-2,0-2.8-0.4-2.8-2.7c0-10-0.1-19.9-0.2-29.9c0-2.2,0.4-3,2.8-2.6
					c15.4,2.1,30.8,3.9,46.2,5.8c3,0.3,4.4,1.1,4.1,4.7c-0.6,6.9-0.7,13.8-0.9,20.8c-0.1,2.2-0.4,3.4-3,3.3
					c-7.7-0.2-15.4-0.1-23.1-0.1C493.1,205.9,493.1,206.1,493.1,206.3"></path>
				<path class="st3" d="M151.1,238.7c-0.3-5.6-0.3-5.7,4.8-5c23.9,3.5,47.9,7.1,71.8,10.6c1.6,0.2,1.9,1,2,2.5
					c0.6,10.1,1.3,20.1,2,30.1c0.1,1.4-0.3,2.2-1.7,2.2c-0.1,0-0.2,0-0.4,0.1c-7.7,2.2-7.7,2.2-8.9-5.9c-0.5-3.4-1-6.7-1.3-10.1
					c-0.2-2.8-1.3-4.2-4.2-4.7c-19.7-3.6-39.4-7.4-59.1-10.8c-4.2-0.7-5.4-2.5-5-6.3C151.1,240.5,151.1,239.6,151.1,238.7"></path>
				<path class="st3" d="M132.4,257.9c18.1,3.5,35.4,6.9,52.8,10.2c2.6,0.5,3.3,1.5,3.2,4.2c-0.3,4.5-0.3,9.1,0,13.6
					c0.1,2.5-1,3.3-3,3.7c-8.1,1.7-16.2,3.4-24.3,5.1c-1.5,0.3-2.5-0.1-3.7-1c-3.5-2.9-7.1-5.7-10.6-8.6c-0.7-0.5-1.4-1.1-1.8-1.9
					C140.4,275.1,136,267,132.4,257.9"></path>
				<path class="st3" d="M244.4,272.5c-0.4-6.1-0.4-6.1,5.9-4.9c18.8,3.5,37.6,7,56.5,10.6c0.8,0.2,2.3-0.4,2.3,1.1
					c0,1.4-1.4,1.1-2.2,1.3c-6.5,1.9-13.2,3.6-19.6,5.9c-5,1.8-9.6,0.1-14.4-0.8c-7.9-1.6-15.7-3.7-23.6-5.1
					c-3.7-0.7-5.4-2.2-4.8-6.1C244.4,273.8,244.4,273.1,244.4,272.5"></path>
				<path class="st3" d="M435.6,222.3c10.9,0.5,21.8,1,32.7,1.4c1.7,0.1,2.5,0.3,2.6,2.5c0.2,8,0.3,8.1-7.3,7.5
					c-20.1-1.5-40.3-3.1-60.4-4.6c-4-0.3-2-3.2-2.4-5c-0.5-2.4,0.8-2.9,2.9-2.8C414.4,221.6,425,222,435.6,222.3
					C435.6,222.4,435.6,222.3,435.6,222.3"></path>
				<path class="st3" d="M61.2,289.7c-14-11.6-19.6-27.8-22.8-45.5c3.3,0.3,6.3,2.4,9.7,2.9c7.9,1.1,10.4,5.5,10.5,13.5
					C58.7,270.3,60.3,280.1,61.2,289.7"></path>
				<path class="st3" d="M71.7,225.5c10.2,2.1,20.2,4.1,30.3,6.2c1.4,0.3,2.5,0.4,2.6,2.7c0.9,19,2,38,3,57c0.1,1.1,1.1,3-1.1,3.2
					c-2.3,0.2-1.8-1.8-1.9-3.2c-1.1-17.7-2.2-35.4-3.3-53.4c-2,1.4-4.1,0.9-6.4,0.2c-6.2-1.9-12.5-3.5-18.7-5.3
					C71.3,231.6,71.3,231.6,71.7,225.5"></path>
				<path class="st3" d="M560.9,187.2c-7.7-3-15.7-5.5-23.1-9.1c-10.7-5-21.9-7.4-33.6-8.2c-1.7-0.1-4,0.4-3.9-3
					c0.2-3.1,0.6-4,4-2.9c17.4,5.6,35,10.9,52.5,16C560.8,181.1,561.9,183,560.9,187.2"></path>
			</g>
			<g id="lines">
				<path class="st1" d="M634.3,225.1c0.1,12.1,0,18.9,0.1,31c0,3.1-0.4,4.7-3.6,6.3c-6.8,3.3-13.1,7.7-19.6,11.7
					c-6.7,4.1-13.4,8.2-20.2,12.3c-2.7,1.6-5.2,0.4-5.2-2.9c-0.1-11.6-0.1-23.2,0-34.8c0-2.7,1.6-4.3,3.9-5.3
					c9.3-4.1,18.5-8.3,27.8-12.5c0.7-0.3,1.6-0.4,2.1-1.6c-3.7,0-7.3-0.1-10.9,0c-26.6,0.5-53.1,1-79.7,1.4c-2.9,0-4.8,2.1-7.4,2.7
					c-38.9,10.1-77.8,20.4-116.6,30.7c-29.4,7.7-58.8,15.4-88.2,23.2c-10.7,2.8-21.4,5.8-32,8.9c-4.1,1.2-7.8-0.5-11.5-1.2
					c-9.9-2-19.9-3.9-29.7-6.7c-4.5-1.3-8.5-1-12.9-0.2c-22.9,4.4-45.4,10.9-68.3,15.4c-3.7,0.7-6.6,0.4-9.4-2.2
					c-1.6-1.5-3.3-3-5.2-4.2c-10.1-6.5-13.3-17.9-18.6-27.8c-0.8-1.4-1.3-2.9-2.1-4.8c-1.7,1.5-2,3.4-2.7,4.9
					c-2.6,5.1-5,10.3-7.6,15.5c-2.4,4.8-4.8,9.6-3.8,15.4c0.5,3.2-1.6,4.2-4.4,3.9c-1.6-0.2-3.3,0-4.7-0.7
					c-6.3-2.8-12.5-0.1-18.7,0.4c-5.2,0.4-10.4,1.4-15.6,2.1c-1.9,0.2-3.4,0-5.9-0.2c-7-6.8-8.5-10.8-14.8-17.2
					c-10.4-10.3-11.9-24.3-16-37.3c-0.6-1.9-0.9-4-1.8-5.7c-0.9-1.7-1.4-3.6-0.3-4.9c1.2-1.4,3.2-0.8,4.8-0.3
					c7.2,2.4,14.5,4.5,21.6,7.3c4.8,1.9,9.1,0.3,13.6-0.2s8.9-1.3,13.4-2c0-0.3,0-0.6,0-0.9c-4.8-1.3-9.6-2.8-14.4-4
					c-3-0.7-4.4-2.5-4.4-5.6c0-3.7,0-7.3,0.1-11c0-1.2-0.1-2.4,1.7-2c6.4,1.6,12.7-0.1,19-0.6c20.2-1.7,40.5-3.8,60.7-5.7
					c17.3-1.7,34.6-3.3,51.9-5c3.4-0.3,6.8-0.7,10.2-1c1.3-0.1,2.6-0.5,2.8,1.8c0.1,2.2-0.9,2.5-2.6,2.7
					c-13.5,1.2-27.1,2.5-40.6,3.8c-20.7,2-41.4,3.9-62.1,5.9c-6.4,0.6-12.8,1.2-19.2,2.3c4.9,1,9.7,2,14.6,3.1
					c2.6,0.6,5.2,0.5,7.4,2.8c1,1.1,3.1,0.3,4.6,0.1c29-3.5,58.1-7,87.1-10.5c12.8-1.5,25.5-3.1,38.3-4.6c2.2-0.2,2.8-1.1,2.8-3.3
					c-0.2-6.2-0.1-12.4,0-18.5c0-3.9,1.1-4.9,4.8-4.8c14.4,0.5,28.9,0.9,43.3,1.5c1.8,0.1,2.4-0.1,2.3-2.3
					c-0.6-26.1-1-52.2-1.4-78.3c-0.1-5.1,0.3-5.5,5.2-6.2c23.6-3.3,47.2-6.7,70.9-10c1.3-0.2,2.6-1,3.9-0.9c2.2,0.1,5.4-2.1,6.3,2.3
					c0.1,0.6,1.6,1.1,2.4,1.5c38.6,19.7,77.6,38.8,115.7,59.5c15.2,8.3,31.8,11.1,47.5,17.1c5.4,2,11,3.4,16.5,5.1
					c0.8,0.3,1.7,0.9,2.4,0.7c4.9-1,4.8,2.7,4.5,5.6c-0.6,6.3,2.1,9.2,7.8,11.5c16.9,7,33.4,14.7,50.1,22.2c1.9,0.8,2.4,1.3,4.4,2.2
					 M399.7,217.3c19.4-3.2,39-5.4,58.5-7.9c2.5-0.3,3.2-1.2,3.1-3.8c-0.3-10.8-0.4-21.7-0.5-32.5c0-4,1.4-5.1,5.2-4.6
					c8.1,1,16.2,2.1,24.4,3c1.4,0.2,3.1,0.3,4-1.1c1.5-2.5-0.2-7.3-2.9-8.7c-35.8-18.3-71.7-36.6-107.5-55c-2.5-1.3-4.9-2.5-7.7-3.8
					c0,15.4,0,30.3,0,45.2c0,15.8,0,31.5,0.2,47.3c0,2-1,1.3-1.6,1.4c-7.8,1.3-15.7,2.7-23.5,3.7c-2.4,0.3-3,1.2-3,3.6
					c0.1,11.2,0,22.4-0.2,33.7c-0.1,2.9,0.8,3.3,3.2,2.8c13.4-2.6,26.9-5.1,40.4-7.4c2.3-0.4,3.3-1.2,2.9-3.6
					c-0.1-0.9-0.2-1.8,0-2.6c0.6-3,0-1.3-0.3-5.7 M370.8,145.8c0-13.7-0.1-27.5,0.1-41.2c0.1-3.6-0.9-4.4-4.2-3.9
					c-22.4,3.3-44.7,6.6-67.2,9.6c-3.2,0.4-3.4,1.7-3.3,4.3c0.5,23.4,1,46.9,1.3,70.3c0,3,0.8,3.7,3.6,3.8c22,0.7,44,1.5,66,2.5
					c3,0.1,3.7-0.7,3.7-3.7C370.7,173.6,370.8,159.7,370.8,145.8 M319.8,275.1c40.3-10,80.6-20,120.9-30.1c3.4-0.9,7.1-1.3,10.7-3.2
					c-16.9-1.4-33.4-2.7-49.8-4.1c-1.5-0.1-3-0.2-4.4,0c-11.3,2.1-22.6,4.2-33.9,6.3c-5.6,1.1-11.3,2.8-17,2.9
					c-5.4,0.1-10.9,0.3-16.1,1.2c-15.9,2.8-31.6,6.6-47.3,10.1c-10,2.2-19.9,4.4-29.9,6.7c17.9,3.9,35.8,7.1,53.7,10.6 M295.4,197.7
					L295.4,197.7c-14.9-0.5-29.8-1-44.7-1.7c-2.6-0.1-3.3,0.7-3.3,3.3c0.1,6.2,0,12.3-0.1,18.5c0,1.8,0.1,2.9,2.5,3.1
					c19.2,1.2,38.3,2.5,57.5,3.9c8.4,0.6,16.8,1.3,25.2,1.9c2.9,0.2,4.1,1.6,4,4.6c-0.1,2.9-0.1,5.8,0,8.7c0,0.8-0.4,1.8,0.9,2
					c2.8,0.5,5-1.3,5.1-4.4c0.2-11.8,0.3-23.7,0.6-35.5c0.1-2.4-0.8-2.9-2.9-3C325.2,198.7,310.3,198.2,295.4,197.7 M619,224.6
					c-0.5-1.4-1.5-1.5-2.2-1.8c-29.4-13.5-59.1-26.1-88.8-38.8c-2.5-1.1-3-0.6-3.1,2c-0.7,12.7-0.8,25.3,1.2,37.9
					c0.3,2,1,2.4,2.7,2.3c9.3-0.2,18.6-0.4,27.9-0.5C577.4,225.4,598.1,225,619,224.6 M492.6,209.6c0-0.2,0-0.5,0-0.7
					c7.7,0,15.4-0.1,23.1,0.1c2.6,0.1,3-1.1,3-3.3c0.2-6.9,0.3-13.9,0.9-20.8c0.3-3.6-1.2-4.4-4.1-4.7c-15.4-1.8-30.8-3.7-46.2-5.8
					c-2.5-0.3-2.9,0.4-2.8,2.6c0.2,10,0.3,19.9,0.2,29.9c0,2.3,0.8,2.7,2.8,2.7C477.2,209.5,484.9,209.6,492.6,209.6 M98.3,288.7
					c-0.7-11.3-1.5-23.8-2.1-36.4c-0.1-2.2-0.8-2.9-2.8-2.5c-9.3,1.5-18.6,3-27.9,4.3c-2.4,0.3-2.6,1.4-2.4,3.4
					c1.3,13.6,2.6,27.3,3.8,41c0.2,2.1,1.1,2.1,2.7,1.8c7.7-1.2,15.5-2.2,23.2-3.3C98.6,296,98.5,295.9,98.3,288.7 M150.6,241.9
					c0,0.9,0.1,1.8,0,2.6c-0.3,3.8,0.8,5.6,5,6.3c19.7,3.3,39.4,7.2,59.1,10.8c2.8,0.5,3.9,2,4.2,4.7c0.3,3.4,0.8,6.7,1.3,10.1
					c1.2,8,1.2,8,8.9,5.9c0.1,0,0.2-0.1,0.4-0.1c1.5,0,1.8-0.7,1.7-2.2c-0.7-10-1.4-20.1-2-30.1c-0.1-1.4-0.4-2.2-2-2.5
					c-23.9-3.5-47.9-7.1-71.8-10.6C150.4,236.2,150.3,236.4,150.6,241.9 M131.9,261.1c3.6,9.1,8.1,17.2,12.5,25.3
					c0.4,0.7,1.1,1.3,1.8,1.9c3.5,2.9,7.1,5.7,10.6,8.6c1.1,1,2.2,1.3,3.7,1c8.1-1.8,16.2-3.4,24.3-5.1c2-0.4,3.1-1.1,3-3.7
					c-0.2-4.5-0.2-9.1,0-13.6c0.2-2.7-0.6-3.7-3.2-4.2C167.4,268,150,264.6,131.9,261.1 M172,232.9c0,0.2,0,0.4,0,0.6
					c0.3,0.1,0.6,0.3,0.9,0.3c16.7,2.5,33.3,5.1,50,7.4c4.9,0.7,9.7,2.2,14.9,1.3c13.6-2.4,27.3-4.3,40.9-6.5
					c9.6-1.5,19.2-3.1,29.6-4.8c-2.9-1.1-5.1-1-7.2-1.2c-13.7-1-27.3-2.2-41-2.8c-8-0.4-16-2.3-24.1-1.5c-15.3,1.6-30.6,3.4-46,5.1
					C184.1,231.6,178.1,232.2,172,232.9 M235.9,264.9c1.4-2,3-2.7,4.8-3.1c11.6-2.5,23.1-5.1,34.7-7.6c17.3-3.8,34.6-7.6,51.8-11.3
					c3.5-0.8,4.6-2.9,3.4-7.7c-0.7-3.1-3-1-4.5-0.8c-16.9,2.5-33.8,5.2-50.7,7.8c-12.8,2-25.6,4-38.4,6.1c-1.2,0.2-2.5,0.3-2.3,2.2
					C235.3,255.1,234.9,259.8,235.9,264.9 M591.4,279.4c12.5-7.6,24.4-14.9,36.3-22.1c1.5-0.9,1.3-2.2,1.3-3.6c0-5.8,0-11.6,0-17.4
					c0-4.7,0-4.7-4.1-2.9c-10.5,4.7-20.9,9.5-31.4,14.2c-1.7,0.8-2.2,1.9-2.2,3.8C591.4,260.5,591.4,269.6,591.4,279.4 M112,280.6
					c0.6-0.4,0.8-0.4,0.9-0.5c2.3-4.7,5-9.3,6.7-14.2c2.8-8.1,7.8-12.7,16-14.1c3.2-0.5,7.2-1.2,9.1-3.4c2-2.3-0.2-6.5-0.1-9.8
					c0-1-0.1-2-0.1-3c0-1.2-0.5-1.4-1.6-1.3c-10.4,1.3-20.8,2.5-31.3,3.8c-1.6,0.2-2.1,0.9-2,2.7c0.5,7.4,0.8,14.8,1.2,22.2
					C111.3,268.7,111.7,274.5,112,280.6 M243.9,275.7c0,0.6,0.1,1.3,0,1.9c-0.6,3.9,1.1,5.4,4.8,6.1c7.9,1.5,15.7,3.6,23.6,5.1
					c4.7,0.9,9.3,2.6,14.4,0.8c6.4-2.3,13-4,19.6-5.9c0.9-0.3,2.3,0.1,2.2-1.3c0-1.5-1.5-0.9-2.3-1.1c-18.8-3.6-37.6-7-56.5-10.6
					C243.5,269.7,243.5,269.6,243.9,275.7 M435.2,225.6L435.2,225.6c-10.6-0.3-21.3-0.7-31.9-1.1c-2.1-0.1-3.4,0.4-2.9,2.8
					c0.4,1.8-1.6,4.7,2.4,5c20.1,1.5,40.3,3.1,60.4,4.6c7.6,0.6,7.5,0.5,7.3-7.5c-0.1-2.1-0.9-2.4-2.6-2.5
					C457,226.5,446.1,226,435.2,225.6 M476,236.6c0.6,0.7-0.9,3.1,1.9,2.3c13.8-3.7,27.6-7.3,41.4-11c1-0.3,1.8-0.4,1.6-1.9
					c-0.4-2.9-0.8-5.7-1-8.6c-0.1-2-0.9-2.2-2.5-1.7c-12.4,3.5-24.9,7.1-37.4,10.5c-1.1,0.3-1.8,0.8-2,1.8
					C477.3,230.8,476.7,233.6,476,236.6 M60.8,292.9c-0.9-9.6-2.5-19.3-2.6-29.1c-0.1-8-2.5-12.4-10.5-13.5
					c-3.4-0.4-6.4-2.6-9.7-2.9C41.2,265.1,46.7,281.3,60.8,292.9 M71.3,228.7c-0.5,6.1-0.5,6,4.6,7.4c6.2,1.7,12.5,3.4,18.7,5.3
					c2.2,0.7,2.9,0.6,5.8,1.4c1.1,18,2.7,34.1,3.8,51.8c0.1,1.4-0.4,3.4,1.9,3.2c2.2-0.2,1.1-2.1,1.1-3.2c-1-19-2.1-38-3-57
					c-0.1-2.3-1.2-2.4-2.6-2.7C91.5,232.9,81.5,230.8,71.3,228.7 M193.3,290.5c6.9-1.6,13.5-3.2,20.1-4.8c1.5-0.4,2.2-1,1.9-2.8
					c-0.7-4.3-1.1-8.7-1.6-13.1c-0.1-1.3-0.7-1.8-1.9-1.6c-5.6,0.8-11.1,1.6-16.7,2.3c-1.5,0.2-2,0.9-2,2.4
					C193.3,278.8,193.3,284.6,193.3,290.5 M429.5,219.6c8.9,0.4,17.8,0.8,26.7,1.1c6.2,0.3,12.6,1.3,18.7,0.6
					c7.4-0.8,14.6-3.9,22.8-6.2C477.9,214,450.3,215.6,429.5,219.6 M560.4,190.4c1-4.2-0.1-6.1-4.1-7.3c-17.6-5.1-35.1-10.5-52.5-16
					c-3.4-1.1-3.8-0.2-4,2.9c-0.2,3.4,2.1,2.9,3.9,3c11.6,0.9,22.8,3.2,33.6,8.2C544.8,184.9,552.7,187.4,560.4,190.4 M196.4,264.4
					c-0.4-0.1-0.8-0.4-1.3-0.5c-16.2-3.4-32.7-5.6-48.9-9.2c-1.8-0.4-4.3,0.3-6,2.3c9.1,1.8,18,3.8,27,5.2
					C177,263.7,186.4,267.8,196.4,264.4" style="stroke: white;"></path>
				<path class="st1" d="M418.9,309.4c1.5-3.8,3.8-5.6,7.4-7c43.5-16.5,86.9-33.2,130.3-49.9c5.9-2.3,11.8-4.6,17.7-6.8
					c0.9-0.3,1.9-0.6,2.8-0.7c2.2-0.2,3.5,0.1,3.3,3.2c-0.9,11.7-1.5,23.4-2.1,35.1c-0.2,3.1-1.5,5.2-4.3,6.9
					c-10.5,6.1-20.9,12.4-31.3,18.8c-1.1,0.7-2,0.7-3.1,0.7c-39.8,0-79.6,0-119.5,0C419.8,309.6,419.5,309.5,418.9,309.4
					 M439.9,303.3c0.1,0.2,0.1,0.4,0.2,0.6c32.4,0,64.8,0,97.2,0c1.2,0,2.3,0,3.5-0.7c9.8-5.9,19.5-11.8,29.4-17.6
					c1.7-1,2.4-2,2.5-4c0.3-7.3,0.8-14.6,1.3-21.9c0.2-2.5,0.3-5.1,0.5-8C529.3,269,484.6,286.2,439.9,303.3" style="stroke: white;"></path>
			</g>
		</g>
		<g>
			<line class="st0" x1="46.1" y1="383" x2="618.4" y2="383" style="stroke: white; fill: white;"></line>
		</g>
		<g>
			<path class="st1" d="M89.1,363.4v-21.7h6.6c2.1,0,3.7,0.5,4.8,1.4c1.1,0.9,1.7,2.3,1.7,4c0,1.4-0.4,2.6-1.1,3.7
				c-0.7,1.1-1.8,1.9-3.2,2.5l7.2,10.2h-3.8l-6.2-9.2h-2.9v9.2L89.1,363.4L89.1,363.4z M92.1,352h1c1.9,0,3.3-0.4,4.3-1.2
				c1-0.8,1.5-1.9,1.5-3.4c0-2.2-1.6-3.4-4.9-3.4h-1.9V352z" style="stroke: white;"></path>
			<path class="st1" d="M108.1,363.4v-21.7h12.1v2.3h-9v7h7.6v2.3h-7.6v7.9h9.7v2.3h-12.8V363.4L108.1,363.4z" style="stroke: white;"></path>
			<path class="st1" d="M124.3,363.4v-21.7h5.9c1.7,0,3,0.1,3.9,0.4c0.9,0.3,1.7,0.8,2.3,1.5c0.8,0.9,1.2,2.2,1.2,3.8
				c0,2.3-0.8,4.1-2.3,5.4s-3.7,2-6.5,2h-1.4v8.6H124.3L124.3,363.4z M127.4,352.5h1.2c1.8,0,3.2-0.4,4.2-1.3s1.5-2,1.5-3.6
				c0-1.3-0.4-2.2-1.2-2.8c-0.8-0.6-2.1-0.8-3.9-0.8h-1.9v8.5L127.4,352.5L127.4,352.5z" style="stroke: white;"></path>
			<path class="st1" d="M140.7,341.8h3.1v13.7c0,2.2,0.4,3.8,1.2,4.8s2.1,1.5,3.8,1.5c1.7,0,2.9-0.5,3.6-1.4
				c0.7-0.9,1.1-2.5,1.1-4.7v-13.8h2.7v13.7c0,1.9-0.2,3.3-0.6,4.4c-0.4,1.1-1,1.9-2,2.7c-1.2,1-2.9,1.4-5,1.4
				c-2.7,0-4.8-0.7-6.1-2.1s-1.9-3.5-1.9-6.5L140.7,341.8L140.7,341.8L140.7,341.8z" style="stroke: white;"></path>
			<path class="st1" d="M161.7,363.4v-21.7h5.6c2.2,0,3.8,0.4,5,1.2c1.2,0.8,1.7,2,1.7,3.5c0,1.3-0.4,2.4-1.2,3.3
				c-0.8,0.9-1.9,1.7-3.3,2.3c3.5,1.1,5.3,3,5.3,5.9c0,1.3-0.4,2.4-1.2,3.4c-0.6,0.8-1.3,1.3-2.2,1.6c-0.9,0.3-2,0.5-3.5,0.5H161.7
				L161.7,363.4z M164.7,351.3h1c1.7,0,2.9-0.4,3.8-1.1c0.9-0.7,1.3-1.7,1.3-3c0-2.1-1.7-3.2-5-3.2h-1.2L164.7,351.3L164.7,351.3
				L164.7,351.3z M164.7,361.1h0.6c2.3,0,3.7-0.1,4.4-0.4c1.3-0.5,1.9-1.5,1.9-3c0-1.3-0.6-2.4-1.7-3.2c-1.1-0.9-2.6-1.3-4.3-1.3
				h-0.9V361.1z" style="stroke: white;"></path>
			<path class="st1" d="M178.9,363.4v-21.7h3.1v19.4h9.8v2.3L178.9,363.4L178.9,363.4z" style="stroke: white;"></path>
			<path class="st1" d="M194.9,363.4v-21.7h3.1v21.7H194.9z" style="stroke: white;"></path>
			<path class="st1" d="M219.9,362.3c-2.1,1.1-4.5,1.7-7,1.7c-3.4,0-6-1-7.8-3c-1.8-2-2.8-4.8-2.8-8.4c0-3.6,0.9-6.4,2.8-8.4
				c1.9-2,4.5-3,7.9-3c1.9,0,4.2,0.3,6.8,1v2.9c-3-1-5.3-1.5-6.9-1.5c-2.4,0-4.2,0.8-5.5,2.4c-1.3,1.6-1.9,3.8-1.9,6.7
				c0,2.8,0.7,5,2.1,6.5c1.4,1.5,3.3,2.4,5.7,2.4c2,0,4.2-0.6,6.6-1.9V362.3L219.9,362.3z" style="stroke: white;"></path>
			<path class="st1" d="M242.7,364c-3.1,0-5.5-1-7.4-3.1c-1.8-2.1-2.8-4.8-2.8-8.3s0.9-6.2,2.8-8.3c1.8-2.1,4.3-3.1,7.4-3.1
				s5.5,1,7.4,3.1c1.8,2.1,2.8,4.8,2.8,8.3s-0.9,6.2-2.8,8.3C248.2,363,245.8,364,242.7,364z M242.7,361.7c2.2,0,3.8-0.8,5.1-2.4
				c1.2-1.6,1.8-3.8,1.8-6.7c0-2.8-0.6-5.1-1.8-6.7c-1.2-1.6-2.9-2.4-5.1-2.4s-3.8,0.8-5.1,2.4c-1.2,1.6-1.8,3.8-1.8,6.7
				s0.6,5.1,1.8,6.7C238.9,360.9,240.5,361.7,242.7,361.7z" style="stroke: white;"></path>
			<path class="st1" d="M257.1,363.4v-21.7h12.1v2.3h-9v7.3h7.6v2.3h-7.6v9.8L257.1,363.4L257.1,363.4z" style="stroke: white;"></path>
			<path class="st1" d="M282.7,363.4v-21.7h3l10.9,16.7v-16.7h2.6v21.7h-3l-10.9-16.7v16.7H282.7z" style="stroke: white;"></path>
			<path class="st1" d="M313.7,364c-3.1,0-5.5-1-7.4-3.1c-1.8-2.1-2.8-4.8-2.8-8.3s0.9-6.2,2.8-8.3c1.8-2.1,4.3-3.1,7.4-3.1
				s5.5,1,7.4,3.1c1.8,2.1,2.8,4.8,2.8,8.3s-0.9,6.2-2.8,8.3C319.3,363,316.8,364,313.7,364z M313.7,361.7c2.2,0,3.8-0.8,5.1-2.4
				c1.2-1.6,1.8-3.8,1.8-6.7c0-2.8-0.6-5.1-1.8-6.7c-1.2-1.6-2.9-2.4-5.1-2.4s-3.8,0.8-5.1,2.4c-1.2,1.6-1.8,3.8-1.8,6.7
				s0.6,5.1,1.8,6.7C309.9,360.9,311.6,361.7,313.7,361.7z" style="stroke: white;"></path>
			<path class="st1" d="M328.2,363.4v-21.7h6.6c2.1,0,3.7,0.5,4.8,1.4c1.1,0.9,1.7,2.3,1.7,4c0,1.4-0.4,2.6-1.2,3.7
				c-0.8,1.1-1.8,1.9-3.2,2.5l7.2,10.2h-3.8l-6.2-9.2h-2.9v9.2L328.2,363.4L328.2,363.4z M331.2,352h1c1.9,0,3.3-0.4,4.3-1.2
				c1-0.8,1.5-1.9,1.5-3.4c0-2.2-1.6-3.4-4.9-3.4h-1.9V352z" style="stroke: white;"></path>
			<path class="st1" d="M352.3,363.4V344h-7.7v-2.3h18.5v2.3h-7.7v19.4H352.3z" style="stroke: white;"></path>
			<path class="st1" d="M366.1,363.4v-21.7h3.1v9.1h10.3v-9.1h3.1v21.7h-3.1v-10.2h-10.3v10.2H366.1z" style="stroke: white;"></path>
			<path class="st1" d="M397.7,363.4v-21.7h4.2l6,16.8l6.2-16.8h3.8v21.7H415v-17.6l-6,16.2h-3l-5.8-16.2v17.7h-2.5V363.4
				L397.7,363.4z" style="stroke: white;"></path>
			<path class="st1" d="M421,363.4l8.6-21.7h3l8.5,21.7h-3.3l-2.4-6h-9.2l-2.4,6H421z M427.1,355.2h7.4l-3.7-9.4L427.1,355.2z" style="stroke: white;"></path>
			<path class="st1" d="M460.5,362.3c-2.1,1.1-4.5,1.7-7,1.7c-3.4,0-6-1-7.8-3s-2.8-4.8-2.8-8.4c0-3.6,0.9-6.4,2.8-8.4
				c1.9-2,4.5-3,7.9-3c1.9,0,4.2,0.3,6.8,1v2.9c-3-1-5.3-1.5-6.9-1.5c-2.4,0-4.2,0.8-5.5,2.4s-1.9,3.8-1.9,6.7c0,2.8,0.7,5,2.1,6.5
				c1.4,1.5,3.3,2.4,5.7,2.4c2,0,4.2-0.6,6.6-1.9L460.5,362.3L460.5,362.3z" style="stroke: white;"></path>
			<path class="st1" d="M465,363.4v-21.7h12.1v2.3h-9v7h7.6v2.3h-7.6v7.9h9.7v2.3H465V363.4z" style="stroke: white;"></path>
			<path class="st1" d="M481.2,363.4v-21.7h7.2c2.1,0,3.9,0.2,5.2,0.7c1.3,0.5,2.5,1.3,3.4,2.4c1.5,1.8,2.3,4.2,2.3,7.2
				c0,3.3-0.9,6.1-2.7,8.1c-1,1.1-2.1,2-3.4,2.5s-2.9,0.7-4.8,0.7h-7.2V363.4z M484.3,361.1h3.9c2.8,0,4.8-0.8,6-2.3
				c1.3-1.6,1.9-3.8,1.9-6.5c0-2.5-0.6-4.6-1.9-6c-0.8-0.9-1.7-1.5-2.7-1.8s-2.6-0.5-4.7-0.5h-2.5V361.1L484.3,361.1z" style="stroke: white;"></path>
			<path class="st1" d="M512.6,364c-3.1,0-5.5-1-7.4-3.1c-1.8-2.1-2.8-4.8-2.8-8.3s0.9-6.2,2.8-8.3c1.8-2.1,4.3-3.1,7.4-3.1
				c3.1,0,5.5,1,7.4,3.1c1.8,2.1,2.8,4.8,2.8,8.3s-0.9,6.2-2.8,8.3C518.1,363,515.6,364,512.6,364z M512.6,361.7
				c2.2,0,3.8-0.8,5.1-2.4c1.2-1.6,1.8-3.8,1.8-6.7c0-2.8-0.6-5.1-1.8-6.7c-1.2-1.6-2.9-2.4-5.1-2.4c-2.2,0-3.8,0.8-5.1,2.4
				c-1.2,1.6-1.8,3.8-1.8,6.7s0.6,5.1,1.8,6.7C508.7,360.9,510.4,361.7,512.6,361.7z" style="stroke: white;"></path>
			<path class="st1" d="M527,363.4v-21.7h3l10.9,16.7v-16.7h2.6v21.7h-3l-10.9-16.7v16.7H527z" style="stroke: white;"></path>
			<path class="st1" d="M549.1,363.4v-21.7h3.1v21.7H549.1z" style="stroke: white;"></path>
			<path class="st1" d="M555.3,363.4l8.6-21.7h3l8.5,21.7h-3.3l-2.4-6h-9.2l-2.4,6H555.3z M561.4,355.2h7.4l-3.7-9.4L561.4,355.2z" style="stroke: white;"></path>
		</g>
		<g>
			<path class="st1" d="M54.6,427.4V397h4.2l15.3,23.4V397h3.7v30.4h-4.2L58.3,404v23.4H54.6z" style="stroke: white;"></path>
			<path class="st1" d="M82.1,427.4l12-30.4h4.3l11.9,30.4h-4.6l-3.3-8.4h-13l-3.3,8.4H82.1z M90.6,415.8H101l-5.2-13.1L90.6,415.8z
				" style="stroke: white;"></path>
			<path class="st1" d="M136.5,427.4V397h4.3v30.4H136.5z" style="stroke: white;"></path>
			<path class="st1" d="M161.1,428.2c-4.3,0-7.7-1.4-10.3-4.3c-2.6-2.9-3.9-6.8-3.9-11.6s1.3-8.7,3.9-11.6c2.6-2.9,6-4.3,10.3-4.3
				c4.3,0,7.7,1.4,10.3,4.3c2.6,2.9,3.9,6.8,3.9,11.6s-1.3,8.7-3.9,11.6C168.8,426.8,165.4,428.2,161.1,428.2z M161.1,425
				c3,0,5.4-1.1,7.1-3.4c1.7-2.3,2.5-5.4,2.5-9.4s-0.8-7.1-2.5-9.3c-1.7-2.2-4.1-3.4-7.1-3.4s-5.4,1.1-7.1,3.4
				c-1.7,2.2-2.5,5.3-2.5,9.3s0.8,7.1,2.5,9.4C155.7,423.9,158.1,425,161.1,425z" style="stroke: white;"></path>
			<path class="st1" d="M181.3,427.4V397h4.2l15.3,23.4V397h3.7v30.4h-4.2L185,404v23.4H181.3z" style="stroke: white;"></path>
			<path class="st1" d="M208.8,427.4l12-30.4h4.3l11.9,30.4h-4.6l-3.3-8.4h-12.9l-3.3,8.4H208.8z M217.3,415.8h10.4l-5.2-13.1
				L217.3,415.8z" style="stroke: white;"></path>
			<path class="st1" d="M241.3,427.4V397h4.3v27.1h13.7v3.2h-18V427.4z" style="stroke: white;"></path>
			<path class="st1" d="M289.4,428.2c-4.3,0-7.7-1.4-10.3-4.3c-2.6-2.9-3.9-6.8-3.9-11.6s1.3-8.7,3.9-11.6c2.6-2.9,6-4.3,10.3-4.3
				c4.3,0,7.7,1.4,10.3,4.3c2.6,2.9,3.9,6.8,3.9,11.6s-1.3,8.7-3.9,11.6C297.1,426.8,293.7,428.2,289.4,428.2z M289.4,425
				c3,0,5.4-1.1,7.1-3.4c1.7-2.2,2.5-5.4,2.5-9.4s-0.8-7.1-2.5-9.3c-1.7-2.2-4.1-3.4-7.1-3.4s-5.4,1.1-7.1,3.4
				c-1.7,2.2-2.5,5.3-2.5,9.3s0.8,7.1,2.5,9.4C284,423.9,286.4,425,289.4,425z" style="stroke: white;"></path>
			<path class="st1" d="M309.6,427.4V397h8.3c2.4,0,4.2,0.2,5.5,0.6c1.3,0.4,2.3,1.1,3.2,2.1c1.1,1.3,1.6,3.1,1.6,5.3
				c0,3.2-1.1,5.8-3.3,7.6c-2.2,1.8-5.2,2.7-9.1,2.7h-1.9v12.1H309.6L309.6,427.4z M313.9,412.1h1.7c2.6,0,4.5-0.6,5.9-1.8
				c1.4-1.2,2.1-2.8,2.1-5c0-1.8-0.6-3.1-1.7-3.9c-1.1-0.8-2.9-1.2-5.5-1.2h-2.6L313.9,412.1L313.9,412.1z" style="stroke: white;"></path>
			<path class="st1" d="M332.8,427.4V397h17v3.2h-12.7v9.7h10.6v3.2h-10.6v11h13.6v3.2h-17.9V427.4z" style="stroke: white;"></path>
			<path class="st1" d="M355.6,427.4V397h9.2c2.9,0,5.1,0.6,6.7,1.9c1.6,1.3,2.3,3.2,2.3,5.6c0,1.9-0.5,3.6-1.6,5.1
				s-2.6,2.7-4.5,3.5l10.1,14.2h-5.3l-8.6-12.8h-4v12.8h-4.3L355.6,427.4L355.6,427.4z M359.9,411.4h1.4c2.7,0,4.7-0.5,6.1-1.6
				c1.4-1.1,2.1-2.7,2.1-4.7c0-3.1-2.3-4.7-6.8-4.7H360L359.9,411.4L359.9,411.4L359.9,411.4z" style="stroke: white;"></path>
			<path class="st1" d="M378.6,427.4l12-30.4h4.3l11.9,30.4h-4.6l-3.3-8.4H386l-3.3,8.4H378.6z M387.2,415.8h10.4l-5.2-13.1
				L387.2,415.8z" style="stroke: white;"></path>
			<path class="st1" d="M442.3,427.4l-1.5-1.8c-2.2,1.7-4.9,2.6-7.9,2.6c-3.2,0-5.8-0.9-7.8-2.8c-2-1.8-3.1-4.2-3.1-7
				c0-4.7,2.5-7.8,7.4-9.5c-1.4-2.5-2.1-4.5-2.1-6.2c0-1.8,0.7-3.3,2.1-4.5c1.4-1.2,3.2-1.9,5.2-1.9s3.6,0.6,4.9,1.7
				s1.9,2.6,1.9,4.4c0,3-2.2,5.7-6.7,7.9c2,3.6,4.4,7,7.1,10.1c1.2-1.8,1.9-4.4,1.9-7.7v-1.5h4c0,4.5-1.3,8.4-4,11.6
				c1.2,1.6,2.6,3.1,4.2,4.5h-5.6L442.3,427.4L442.3,427.4z M439,423.3c-2.9-3.5-5.6-7.5-8.2-12c-3.2,1.3-4.7,3.3-4.7,6.1
				c0,2.1,0.7,4,2.2,5.5s3.2,2.3,5.3,2.3C435.5,425.2,437.3,424.6,439,423.3z M433.3,407.8c2.9-1.3,4.4-3.1,4.4-5.3
				c0-1-0.3-1.7-0.9-2.3c-0.6-0.6-1.3-0.9-2.3-0.9s-1.7,0.3-2.3,0.9c-0.6,0.6-0.9,1.3-0.9,2.3C431.4,403.9,432.1,405.7,433.3,407.8z
				" style="stroke: white;"></path>
			<path class="st1" d="M467,427.4V397h7.9c3,0,5.4,0.6,7,1.7c1.6,1.1,2.4,2.8,2.4,5c0,1.8-0.5,3.3-1.6,4.7
				c-1.1,1.4-2.6,2.4-4.6,3.2c5,1.5,7.4,4.3,7.4,8.2c0,1.8-0.5,3.4-1.6,4.7c-0.8,1.1-1.8,1.8-3,2.2c-1.2,0.4-2.8,0.6-4.9,0.6h-9
				L467,427.4L467,427.4z M471.3,410.4h1.4c2.3,0,4.1-0.5,5.4-1.5c1.3-1,1.9-2.4,1.9-4.2c0-3-2.3-4.4-6.9-4.4h-1.7v10.1H471.3z
				 M471.3,424.2h0.9c3.2,0,5.2-0.2,6.1-0.6c1.8-0.8,2.7-2.1,2.7-4.2c0-1.8-0.8-3.3-2.4-4.5c-1.6-1.2-3.6-1.8-6-1.8h-1.2v11.1H471.3
				z" style="stroke: white;"></path>
			<path class="st1" d="M487.6,427.4l12-30.4h4.3l11.9,30.4h-4.6l-3.3-8.4H495l-3.3,8.4H487.6z M496.2,415.8h10.4l-5.2-13.1
				L496.2,415.8z" style="stroke: white;"></path>
			<path class="st1" d="M520.1,427.4V397h4.3v27.1h13.7v3.2h-18V427.4z" style="stroke: white;"></path>
			<path class="st1" d="M542.5,427.4V397h4.3v27.1h13.7v3.2h-18V427.4z" style="stroke: white;"></path>
			<path class="st1" d="M564.9,427.4V397h17v3.2h-12.7v9.7h10.6v3.2h-10.6v11h13.5v3.2h-17.8V427.4z" style="stroke: white;"></path>
			<path class="st1" d="M594.9,427.4v-27.1h-10.8v-3.2h25.8v3.2h-10.8v27.1H594.9z" style="stroke: white;"></path>
			<path class="st1" d="M117.3,427.4v-27.1h-10.8v-3.2h25.8v3.2h-10.8v27.1H117.3z" style="stroke: white;"></path>
		</g>
	</g>
</g>
</svg>