<svg xmlns="http://www.w3.org/2000/svg" width="1213.02499" height="368.5" viewBox="0 0 1213.02499 368.5">
  <title>logo-vic</title>
  <line x1="297.29999" y1="199" x2="320.20001" y2="199" fill="#fff"/>
  <path d="M393.1,114c-25,0-45,18.7-45,43.4s20,43.4,45,43.4,45-18.7,45-43.4S418,114,393.1,114Zm0,64.3a20.8,20.8,0,1,1,21-20.8A21.1,21.1,0,0,1,393.1,178.3Z" fill="#fff"/>
  <path d="M519.2,146.1c0-17.4-14-30.3-31.7-30.3H449.3V199h22.8V176.4h10.7L493.3,199H519l-14.2-27.9C512.8,165.5,519.2,157.3,519.2,146.1Zm-31.7,9.8H472.2V136.3h15.3c5.2,0,8.5,5.8,8.5,9.9s-3.3,9.7-8.5,9.7h0v0Z" fill="#fff"/>
  <rect x="533.09998" y="115.9" width="22.79999" height="83.13" fill="#fff"/>
  <path d="M611.9,115.9h-8.6L564.9,199h24.5l4-9.4H622l4,9.4h24.5Zm-11.6,54,7.1-16.2h0.5l7.1,16.2H600.3Z" fill="#fff"/>
  <path d="M287.8,115.9L341.5,0H0L54,116.6H79.2l20.7,44.6,20.7-44.6h25.2L108,198.3H91.9l78.9,170.2,80.7-174.1a42.2999,42.2999,0,0,1-21.3,5.7c-24.4,0-43.8-18.4-43.8-42.7s19.4-42.7,43.8-42.7a42.6,42.6,0,0,1,36.6,20.8l-19,11.4a20.5,20.5,0,1,0,0,20.9l12.5,7.5,18.1-39.1h18.9V199h22.8V136.3h23V115.9H287.8ZM176,198.3H152.7V116.6H176v81.6h0v0.1Z" fill="#fff"/>
  <line x1="297.29999" y1="199" x2="320.20001" y2="199" fill="#fff"/>
  <path d="M323.4,243.4a22.4,22.4,0,0,0-11.8-3.5c-4.7,0-8,1.8-8,5s3.6,4,8.6,4.8l2.3,0.4c7.4,1.2,13.2,4.4,13.2,11.6,0,9.2-8.1,13.5-17,13.5-6.3,0-13.1-1.8-17.5-5.4l4.3-6.7a22,22,0,0,0,13.2,4.5c4.6,0,8.2-1.8,8.2-5s-3-3.9-8.8-4.9l-2.6-.4c-7.3-1.2-12.7-4.4-12.7-11.9s7.7-13.2,16.6-13.2a29.2,29.2,0,0,1,15.9,4.4Z" fill="#fff"/>
  <path d="M353.8,252.6H343.4v10.5c0,3.6,1.9,4.9,4.3,4.9a11.19986,11.19986,0,0,0,5.4-1.9l2.9,6.1a16.10006,16.10006,0,0,1-9.5,3c-7.1,0-10.8-4-10.8-11.5V252.6h-5.6v-6.9h5.6v-8.6h7.8v8.6h10.4v6.9h-0.1Z" fill="#fff"/>
  <path d="M365.3,260.1c0,4.4,2.9,7.9,7.4,7.9s7.4-3.4,7.4-7.9-3-7.9-7.4-7.9-7.4,3.5-7.4,7.9m22.2,14.4h-7.6v-3.2a10.60008,10.60008,0,0,1-8.6,3.9c-7.9,0-13.9-6.5-13.9-15.1s6-15.1,13.9-15.1a10.5,10.5,0,0,1,8.6,3.9v-3.2h7.6v28.8h0v0Z" fill="#fff"/>
  <path d="M415.3,252.6H404.9v10.5c0,3.6,1.9,4.9,4.3,4.9a11.19986,11.19986,0,0,0,5.4-1.9l2.9,6.1a16.10006,16.10006,0,0,1-9.5,3c-7.1,0-10.8-4-10.8-11.5V252.6h-5.6v-6.9h5.6v-8.6H405v8.6h10.4v6.9h-0.1Z" fill="#fff"/>
  <path d="M426.8,257.4h12.7c-0.7-3.7-2.9-5.8-6.3-5.8s-5.8,2.2-6.5,5.8m20.5,2.7a22.2957,22.2957,0,0,1-.1,2.6H426.8c0.8,4.2,3.7,6,7.4,6a11.6,11.6,0,0,0,7.3-2.8l4.5,5a17.4999,17.4999,0,0,1-12.3,4.4c-8.8,0-14.9-6-14.9-15.1s5.9-15.2,14.6-15.2,14,6.1,14,15.1" fill="#fff"/>
  <path d="M330.9,292l-6,5.9a12.9,12.9,0,0,0-10-4.4c-7.6,0-13.1,5.6-13.1,13.7s5.8,13.8,13,13.8,10.7-3.3,11.8-9.2H316v-6.9h19.1a21.10034,21.10034,0,0,1,.1,2.3c0,12.6-8.5,21.5-20.3,21.5s-21.7-8.1-21.7-21.5,9.2-21.6,21.9-21.6c6.6,0,12.1,2.4,15.8,6.4" fill="#fff"/>
  <path d="M347.1,313.6c0,4.7,3.3,7.9,7.6,7.9a7.95,7.95,0,1,0,0-15.9c-4.4,0-7.6,3.3-7.6,7.9m23.2,0c0,8.7-6.6,15.1-15.6,15.1s-15.5-6.5-15.5-15.1,6.6-15.1,15.5-15.1,15.6,6.5,15.6,15.1" fill="#fff"/>
  <polygon points="391.4 328 382.4 328 371.1 299.2 379.5 299.2 387 319.8 394.5 299.2 402.6 299.2 391.4 328" fill="#fff"/>
  <path d="M411.5,310.9h12.7c-0.7-3.7-2.9-5.8-6.3-5.8s-5.8,2.2-6.5,5.8m20.5,2.7a22.29567,22.29567,0,0,1-.1,2.6H411.4c0.8,4.2,3.7,6,7.4,6a11.6,11.6,0,0,0,7.3-2.8l4.5,5a17.4999,17.4999,0,0,1-12.3,4.4c-8.8,0-14.9-6-14.9-15.1s5.9-15.2,14.6-15.2,14,6.1,14,15.1" fill="#fff"/>
  <path d="M456.8,299.1l-1.2,7.7a12.49979,12.49979,0,0,0-4.7-.9c-3.6,0-6.1,2.2-6.1,6.5V328H437V299.2h7.5v3.1c1.8-2.7,4.6-3.9,8.1-3.9a11.70044,11.70044,0,0,1,4,.6" fill="#fff"/>
  <path d="M488.1,309.7V328h-7.8V312.2c0-4.2-2.1-6.4-5.6-6.4s-6.1,2.2-6.1,6.5V328h-7.8V299.2h7.5v3.4a9.6,9.6,0,0,1,8.5-4.2c6.5,0,11.2,4.5,11.2,11.2" fill="#fff"/>
  <path d="M541.4,309.7V328h-7.7V312.2c0-4.2-2.1-6.4-5.6-6.4s-6.1,2.2-6.1,6.5V328h-7.8V312.2c0-4.2-2.1-6.4-5.6-6.4s-6.1,2.2-6.1,6.5V328h-7.8V299.2h7.5v3.4a9.6,9.6,0,0,1,8.5-4.2,10.9,10.9,0,0,1,9.5,4.9c2.2-3.7,6-4.9,9.8-4.9,6.8,0,11.3,4.5,11.3,11.2" fill="#fff"/>
  <path d="M554.3,310.9H567c-0.7-3.7-2.9-5.8-6.3-5.8s-5.8,2.2-6.5,5.8m20.5,2.7a22.289,22.289,0,0,1-.1,2.6H554.3c0.8,4.2,3.7,6,7.4,6a11.6,11.6,0,0,0,7.3-2.8l4.5,5a17.4999,17.4999,0,0,1-12.3,4.4c-8.8,0-14.9-6-14.9-15.1s5.9-15.2,14.6-15.2,14,6.1,14,15.1" fill="#fff"/>
  <path d="M607.2,309.7V328h-7.8V312.2c0-4.2-2.1-6.4-5.6-6.4s-6.1,2.2-6.1,6.5V328H580V299.2h7.5v3.4a9.6,9.6,0,0,1,8.5-4.2c6.5,0,11.2,4.5,11.2,11.2" fill="#fff"/>
  <path d="M634.5,306.1H624.1v10.5c0,3.6,1.9,4.9,4.3,4.9a11.20008,11.20008,0,0,0,5.4-1.9l2.8,6.1a16.10006,16.10006,0,0,1-9.5,3c-7.1,0-10.8-4-10.8-11.5V306.1h-5.6v-6.9h5.6v-8.6h7.8v8.6h10.4v6.9Z" fill="#fff"/>
  <path d="M825.2,136.2H855c0.1-7.4,0-14.8.1-22.5h7.4v52.6c-2.3.7-4.6,0.1-7.3,0.4V143.4H825.4v22.8c-2.5.7-4.9,0.3-7.2,0.3-0.5-2.4-.7-47.6-0.2-52.9h7.3v22.5h-0.1v0.1Z" fill="#fff"/>
  <path d="M1004.3,194h7.4v52.7c-2.3.6-4.7,0.2-7.3,0.2V223.7H974.7v22.9c-2.5.7-4.9,0.3-7.2,0.3-0.5-2.4-.7-48.1-0.2-52.9h7.2v22.7c2.5,0.6,22.8.9,29.8,0.3,0.1-3.8,0-7.7,0-11.5V194Z" fill="#fff"/>
  <path d="M1096.2,216.3a14.6,14.6,0,0,1,11.9-6,18.90025,18.90025,0,0,1,8,1.1,12.8,12.8,0,0,1,7.2,7.2,16.59866,16.59866,0,0,1,1.2,6.7v21.3c-2.2.6-4.4,0.2-6.7,0.3a22.87589,22.87589,0,0,1-.2-2.5V225.7c0-3.8-1.8-6.3-4.9-8.1s-6.3-1.4-9.5.3-5.1,5.9-5.2,9.9,0,10.3,0,15.5v3.3a23.20056,23.20056,0,0,1-6.1.2,22.79107,22.79107,0,0,1-.2-2.6V227.4a18.001,18.001,0,0,0-1.2-5.7c-1.6-4.8-7.3-5.9-10.6-5.1s-6.1,2.6-7.2,6.1a10.99939,10.99939,0,0,0-.6,3.3c-0.1,6,0,12,0,18v2.6h-6.5c-0.6-2.2-.7-30.2-0.2-35.9h6.6l0.3,3C1078.8,208.8,1090.1,208.3,1096.2,216.3Z" fill="#fff"/>
  <path d="M815.2,321.7a11.29975,11.29975,0,0,1,3.7-5.9c1.7,1,3.5,2.1,5.3,3a27.99983,27.99983,0,0,0,12,2.7,18.50011,18.50011,0,0,0,9.2-2.4c2.7-1.6,4.2-3.8,3.9-6.9s-2.3-4.6-4.8-5.7a21.30054,21.30054,0,0,0-5.1-1.4c-3.1-.5-6.1-1-9.2-1.3a18.3,18.3,0,0,1-9.6-4,12.40029,12.40029,0,0,1-3.2-4.8,14.2,14.2,0,0,1,3-15.2c3.8-3.9,8.5-5.4,13.7-5.7h4.1c6.1-.4,11.3,2,16.5,4.7A6.89894,6.89894,0,0,1,856,280l-3.5,5.5c-2.5-1.1-4.8-2.3-7.2-3.2a24.0001,24.0001,0,0,0-15-.6A9.4,9.4,0,0,0,825,286a6.6,6.6,0,0,0,2.4,9l1.3,0.6a38.30068,38.30068,0,0,0,9.3,2,37.0001,37.0001,0,0,1,11.9,3c5.2,2.4,8.1,9.1,6.6,15s-6.2,9.8-12,11.6a26.69963,26.69963,0,0,1-8.9,1.3C828.3,328.2,821.3,326.3,815.2,321.7Z" fill="#fff"/>
  <path d="M930.3,192.7h6.2v54.1h-5.9l-0.4-3.7c-4.7,4.6-10.5,5.3-16.3,4.3s-8-3.6-10.6-7.2c-4.5-6.3-4.3-17.2.4-23.1,6.3-8,17.8-9.5,26.8-2.4V203.6C930.5,200,930.3,196.5,930.3,192.7Zm0,36.5c0.1-5.1-1.8-8.7-5.8-11a11.2,11.2,0,0,0-14.5,2c-5.2,5.6-4.3,15.4,2.6,19.5s11.8,1.3,14.6-2,3.6-5.4,3.1-8.4h0Z" fill="#fff"/>
  <path d="M942.3,134.2l0.2-3.4h6.4c0.6,2.2.9,26.9,0.3,35.8h-6.6l-0.3-3.7-2,1.1a17.4,17.4,0,0,1-13.8,2.7c-7.5-1.6-11.9-6.1-13.8-13.4a19.79992,19.79992,0,0,1,.7-12.2c2.3-6.2,6.7-9.8,13.2-11.3,4.1-.9,7.8,0,11.4,1.4A26.50127,26.50127,0,0,1,942.3,134.2Zm0.2,14.3a28.09908,28.09908,0,0,0-.5-4,11.7,11.7,0,0,0-12.7-8.3c-7.7.9-11.9,8.9-9.9,15.6,1.5,4.8,4.4,7.7,9.4,8.8a10.3,10.3,0,0,0,11-4A12.40005,12.40005,0,0,0,942.5,148.5Z" fill="#fff"/>
  <path d="M1162.3,214.6l0.2-3.4h6.7v35.5c-2,.6-4.2.2-6.5,0.3l-0.4-3.6c-2.2,1.7-4.3,3.2-7,3.8-4.5,1-8.9,1-13.1-1.1a19.2,19.2,0,0,1-9.6-13,19.79956,19.79956,0,0,1,2.1-14.1,16.10007,16.10007,0,0,1,13.9-8.6c3.8-.2,7.5.1,10.8,2.3ZM1151,241.3c5.8,0.4,11.4-4.4,11.8-12.2a11.40014,11.40014,0,0,0-3.6-9,12.9001,12.9001,0,0,0-8.7-3.5c-6-.3-11.5,5.7-11.6,12.3S1144.6,241.9,1151,241.3Z" fill="#fff"/>
  <path d="M844.2,214.7l0.2-3.8h6.7v35.8c-2.1.6-4.3,0.2-6.6,0.2l-0.3-3.8a13.8,13.8,0,0,1-7.1,3.9c-8.9,2.2-18.7-1.5-21.6-10.9-2-6.6-1.8-13,2.2-18.8a15.6,15.6,0,0,1,12.9-6.9c2.2-.1,4.3-0.4,6.5.5C841.3,212.4,841.3,212.2,844.2,214.7Zm-11.5,26.6c6.6,0.7,12.1-5.7,12.2-12.3s-5.6-12.8-11.7-12.4c-8.1.4-12,5.8-12.1,12.3s4.4,12.2,11.7,12.4h-0.1Z" fill="#fff"/>
  <path d="M1016,166.5h-5.9V112.4h6.1c0.1,7,0,14,0,21.5,3-3.1,6.6-4.1,10.2-4.4a15.69993,15.69993,0,0,1,11.3,3.4c3.7,2.9,4.9,6.9,5,11.3,0.1,7.4,0,14.7,0,22.3h-6.8c0-.8-0.1-1.6-0.1-2.4V145.2a8.59994,8.59994,0,0,0-5.7-8.4,10.1,10.1,0,0,0-12.98322,5.95448L1017.1,142.8l-0.3,1.1a22.39883,22.39883,0,0,0-.6,4.6c-0.1,5.8,0,11.6-.1,17.4v0.6Z" fill="#fff"/>
  <path d="M870.4,312.1c1.8,10.2,12.5,13.5,22,6.4,1.8,0.8,1.8.8,4.2,4.1-2.6,3.2-6.1,4.7-10.1,5.3a20.60068,20.60068,0,0,1-4,.6c-4.9-.1-9.7-1.1-13.5-4.6a18.3,18.3,0,0,1-5.3-9.9,20.79983,20.79983,0,0,1,.8-11.6c2.1-6.2,6.5-9.7,12.9-11.2a18.20021,18.20021,0,0,1,10.3.8c4.4,1.5,7.1,4.9,9,9s1.4,7.1,1.1,11.1H870.4v0Zm20.6-5.8c0-5.4-5.3-10.3-11.4-9.4a10.3,10.3,0,0,0-7.2,4.6c-0.9,1.3-2.2,2.8-1.3,4.8H891Z" fill="#fff"/>
  <path d="M901.5,157l3.4,4.2c-2,3.1-5.2,4.4-8.5,5.3a21.3,21.3,0,0,1-16-1.7c-4.4-2.3-6.7-6.1-8.1-10.5a20.29977,20.29977,0,0,1,.4-13.1c2.2-6.3,6.7-9.8,13.2-11.3a17.7,17.7,0,0,1,9.7.8c4.5,1.5,7.4,4.7,9.3,9s1.4,7.1,1.1,11.1H878.7c0.7,5.3,3.6,8.9,8.5,10a14.3,14.3,0,0,0,11.7-2.2ZM899,145c0.4-4.6-4.2-9-9.2-9.4s-11.1,5.2-10.5,9.4H899Z" fill="#fff"/>
  <path d="M1061.5,312.1h-28a11.3,11.3,0,0,0,10.6,10.2c4,0.2,7.3-1.2,10.5-3.2,1.5-.9,1.8-0.9,2.8.5s0.1,0.4.2,0.6c2.1,2.9,2.2,3-.7,4.8a26.20074,26.20074,0,0,1-8.3,3.1c-4.2.9-7.9-.1-11.8-1.3s-5.9-3.6-7.7-6.5a14.90011,14.90011,0,0,1-2.6-9.4c0.2-2.4-.1-4.7.5-7.1,1-4.2,3.7-7.1,6.7-9.9l1.3-.8c5.1-2.7,10.5-3.4,15.8-1.1a15.79991,15.79991,0,0,1,9.6,11.7C1061.1,306.3,1061.1,309,1061.5,312.1Zm-28-5.8h20.7c-1.3-6.6-5.3-9.3-10.3-9.4a10.7,10.7,0,0,0-10.4,9.4H1033.5Z" fill="#fff"/>
  <path d="M1069.1,318.3a19.20028,19.20028,0,0,0,7.9,3.7,18.59986,18.59986,0,0,0,9.6-.5,16.59985,16.59985,0,0,0,3.4-2.3c0.3-3.7,0-4.4-3-5.5a27.59932,27.59932,0,0,0-4.2-1c-3-.6-6.1-0.6-9.1-1.8s-5.8-3.5-6.2-7,0.2-7.8,4.1-10.3a18.69989,18.69989,0,0,1,13.9-2.5c2.6,0.5,5.3.7,7.7,2l3.4,1.7-3.2,5.3-3.6-1.8a22.49993,22.49993,0,0,0-10.4-1.4c-2.4.1-3.5,2-5,3.3-0.2,3.3,1.5,5.1,4.9,5.5a75.09953,75.09953,0,0,1,8.9,1.3c2.8,0.7,5.7,1.6,7.4,4.5s1.9,8.8-.8,11.9-3.9,3.6-6.9,3.9-4.7,1.2-7,1.1c-4.6-.2-9.2-1-13.3-3.6-1.8-1.1-1.9-1.3-.8-3.1Z" fill="#fff"/>
  <path d="M867.1,246.9H861V211.1h5.9l0.4,3.5,1.6-1.3a11.70012,11.70012,0,0,1,7.6-3c2.9,0,5.7-.1,8.6,1,5.3,2,8.1,6,8.4,11.2,0.5,8,.1,16,0.1,24.1-2.3.5-4.4,0.2-6.8,0.2a22.80478,22.80478,0,0,1-.2-2.6V225.6c0-6.2-7-11-13.3-8.3-4.6,2-6.1,5.7-6.3,10.2s-0.1,10.5-.1,15.8A19.99782,19.99782,0,0,1,867.1,246.9Z" fill="#fff"/>
  <path d="M1180.3,211.1h6l0.2,3.8a11.89987,11.89987,0,0,1,7.7-4.4c5.6-.8,11-0.2,15.3,4.2a11.69969,11.69969,0,0,1,3.4,8.1c0.2,7.9.1,15.8,0.1,23.8-2.2.7-4.4,0.3-6.7,0.3a22.87589,22.87589,0,0,1-.2-2.5c0-6.2-.2-12.4,0-18.6,0.2-8-8.1-11-13.5-8.2-3.2,1.7-5.3,3.9-5.5,7.6-0.1,2-.5,3.9-0.6,5.9-0.1,5.2,0,10.3,0,15.6-2,.7-3.9.3-5.9,0.3C1180,244.5,1179.8,216.4,1180.3,211.1Z" fill="#fff"/>
  <path d="M1048.6,211.1h6.9v3.2c0,5.6.1,11.2-.1,16.7a28.49741,28.49741,0,0,1-1.3,7.6,12.19992,12.19992,0,0,1-9.1,8.2,22.2,22.2,0,0,1-14.1-.5c-4.2-1.6-8.3-6.8-8.3-11.4-0.1-7.6,0-15.2,0-22.8a7.00035,7.00035,0,0,1,.2-1.1h6.1v3.2c0,5.4-.1,10.7.1,16.1a19.99782,19.99782,0,0,0,1.2,5.7c1.2,3.6,4.2,4.9,7.8,5.2a9.3,9.3,0,0,0,7.1-1.9,9.4001,9.4001,0,0,0,3.5-7.6V211h0v0.1Z" fill="#fff"/>
  <path d="M980.3,136.3h-7.4v-5.7h7.3v-11c2.3-.7,4.5-0.2,6.9-0.4v11.4h14.5v5.6H987.4c-0.1,1-.2,1.7-0.2,2.4v15.5c0,5.2,4.2,7.9,8.9,6.3a45.001,45.001,0,0,0,4.8-2l3.1,5.1-2.5,1.7c-5,2.3-10.1,3-15.3.7a8.70006,8.70006,0,0,1-4.7-5.2,18.79933,18.79933,0,0,1-1.4-7C980.3,148.1,980.3,142.5,980.3,136.3Z" fill="#fff"/>
  <path d="M1018.5,317.6l4.1,5a20.49982,20.49982,0,0,1-10.2,5.4c-5.3,1.2-9.8-.2-14.2-2.7a13.70008,13.70008,0,0,1-5.9-6.7,21.50009,21.50009,0,0,1,.1-18.4c2.3-5,6.6-7.6,11.7-9s10.9-.2,15.8,2.6a15.89938,15.89938,0,0,1,2.7,2.4l-4.7,4.6c-6.7-5.8-12.9-4.8-17.3-.2a12.4,12.4,0,0,0,0,17.5l0.3,0.3C1005.5,323.2,1010.4,324,1018.5,317.6Z" fill="#fff"/>
  <path d="M954.9,327.8h-7.6L932,291.4h7.5l11.4,28c1.9-2.4,2.3-5,3.3-7.2s1.8-4.6,2.8-6.9l3-7.1,2.9-6.8h7.3Z" fill="#fff"/>
  <path d="M928.3,298.7c-4.1-1.7-7.9-2.4-11.5.6a9.40015,9.40015,0,0,0-3.6,7.5c-0.1,5.7,0,11.4,0,17v3.5h-6.8V291.4H913l0.3,3.3a30.1994,30.1994,0,0,1,5.1-3.1,15.29983,15.29983,0,0,1,5.8-.9,35.90017,35.90017,0,0,1,5.9,1.2Z" fill="#fff"/>
  <path d="M960.3,112.4h5.9v53.9c-1.8.6-3.8,0.2-5.7,0.3C959.9,164.2,959.7,118,960.3,112.4Z" fill="#fff"/>
  <path d="M975.4,291.4H982v35.8h-6.3C975.1,324.9,974.9,297.2,975.4,291.4Z" fill="#fff"/>
  <path d="M980.5,274.9c2,1.7,3.7,3.4,2.6,6.2s-4.1,2.5-6.6,2.6c-2.4-2-3.2-3.9-2.3-6.2S977.8,274.8,980.5,274.9Z" fill="#fff"/>
  <rect x="728.70001" y="111" width="3.09998" height="218.70001" fill="#fff"/>
</svg>
