<?xml version="1.0" encoding="UTF-8"?>
<svg width="169px" height="30px" viewBox="0 0 169 30" version="1.1" xmlns="http://www.w3.org/2000/svg" xmlns:xlink="http://www.w3.org/1999/xlink">
    <!-- Generator: Sketch 52.5 (67469) - http://www.bohemiancoding.com/sketch -->
    <title>logo - white</title>
    <desc>Created with Sketch.</desc>
    <g id="logo---white" stroke="none" stroke-width="1" fill="none" fill-rule="evenodd">
        <g id="Group" fill="#FFFFFF">
            <path d="M101.4566,4e-05 L101.4566,10.56124 C100.907,9.85484 100.2306,9.29884 99.4398,8.90404 C98.4814,8.42684 97.4794,8.18444 96.4626,8.18444 C95.3718,8.18444 94.369,8.38004 93.481,8.76604 C92.593,9.15164 91.8254,9.68764 91.197,10.35844 C90.5682,11.02924 90.073,11.83204 89.7246,12.74404 C89.377,13.65564 89.2006,14.65044 89.2006,15.70044 C89.2006,16.75044 89.377,17.74524 89.7246,18.65684 C90.0726,19.56844 90.5674,20.37084 91.197,21.04284 C91.8258,21.71444 92.5942,22.25044 93.481,22.63524 C94.3678,23.02044 95.3714,23.21644 96.4626,23.21644 C97.4802,23.21644 98.4818,22.97964 99.4382,22.51244 C100.2294,22.12684 100.9062,21.58244 101.4566,20.88924 L101.4566,22.86044 L103.8702,22.86044 L103.8702,4e-05 L101.4566,4e-05 Z M101.3114,17.82924 C101.061,18.48164 100.709,19.05124 100.2654,19.52164 C99.8218,19.99244 99.2866,20.37004 98.675,20.64324 C98.0646,20.91684 97.3886,21.05484 96.6662,21.05484 C95.8854,21.05484 95.1802,20.91684 94.5698,20.64404 C93.961,20.37124 93.443,19.99124 93.0294,19.51364 C92.6138,19.03404 92.2902,18.46004 92.0674,17.80764 C91.8438,17.15164 91.7302,16.44284 91.7302,15.70044 C91.7302,14.95804 91.8438,14.24884 92.0674,13.59324 C92.2898,12.94164 92.6138,12.36764 93.0294,11.88804 C93.4442,11.40924 93.963,11.02404 94.5726,10.74164 C95.1806,10.45964 95.885,10.31684 96.6662,10.31684 C97.3886,10.31684 98.0642,10.45524 98.675,10.72724 C99.2866,11.00204 99.8218,11.38364 100.2642,11.86364 C100.7086,12.34444 101.061,12.91884 101.3114,13.57164 C101.5626,14.22364 101.6898,14.94004 101.6898,15.70044 C101.6898,16.46124 101.5626,17.17724 101.3114,17.82924 Z" id="Fill-1"></path>
            <path d="M166.21108,23.03892 C165.68348,23.03892 165.24788,22.84972 164.91548,22.47652 C164.58828,22.11132 164.42268,21.68732 164.42268,21.21652 C164.42268,20.74652 164.58828,20.32172 164.91548,19.95572 C165.24668,19.58372 165.68308,19.39452 166.21108,19.39452 C166.73828,19.39452 167.17428,19.58372 167.50668,19.95612 C167.83388,20.32252 167.99988,20.74692 167.99988,21.21652 C167.99988,21.68652 167.83388,22.11012 167.50668,22.47692 C167.17388,22.84972 166.73748,23.03892 166.21108,23.03892" id="Fill-3"></path>
            <path d="M140.20992,23.03892 C139.82832,23.03892 139.41952,22.98692 138.99552,22.88452 C138.55992,22.77932 138.14992,22.57572 137.77712,22.28012 C137.40272,21.98412 137.09312,21.57852 136.85632,21.07452 C136.61992,20.57332 136.49992,19.91252 136.49992,19.11132 L136.49992,10.67212 L133.67632,10.67212 L133.67632,8.54012 L136.49992,8.54012 L136.49992,4.62652 L138.91312,4.62652 L138.91312,8.54012 L142.75592,8.54012 L142.75592,10.67212 L138.91312,10.67212 L138.91312,18.54732 C138.91312,19.04012 138.95912,19.44772 139.04952,19.76052 C139.13512,20.05852 139.25952,20.29172 139.41712,20.45252 C139.57592,20.61412 139.75832,20.72172 139.97552,20.78132 C140.42432,20.90412 140.95432,20.91932 141.53872,20.76572 C141.82152,20.69132 142.09632,20.58732 142.35472,20.45572 L142.65112,20.30492 L142.76352,22.55092 L142.61792,22.60852 C142.26032,22.75012 141.87992,22.85892 141.48552,22.93092 C141.09392,23.00252 140.66512,23.03892 140.20992,23.03892" id="Fill-5"></path>
            <polygon id="Fill-7" points="158.9944 22.86064 161.4068 22.86064 161.4068 0.00024 158.9944 0.00024"></polygon>
            <polygon id="Fill-9" points="128.856 22.86064 131.2692 22.86064 131.2692 8.54064 128.856 8.54064"></polygon>
            <polygon id="Fill-10" points="106.5732 22.86064 108.9856 22.86064 108.9856 8.54064 106.5732 8.54064"></polygon>
            <path d="M156.37904,22.59712 C156.30424,22.21312 156.24624,21.73312 156.20864,21.17112 C156.17024,20.60832 156.15024,20.05472 156.15024,19.52592 L156.15024,13.44712 C156.15024,12.56992 156.00704,11.79192 155.72504,11.13352 C155.44064,10.47272 155.03864,9.91712 154.53024,9.48232 C154.02544,9.04992 153.43224,8.72192 152.76784,8.50672 C152.10904,8.29312 151.39104,8.18472 150.63544,8.18472 C149.45024,8.18472 148.37024,8.37952 147.42544,8.76432 C146.48024,9.14912 145.70704,9.64512 145.12584,10.23632 L144.98544,10.37992 L146.37144,12.05312 L146.53784,11.88312 C147.00104,11.41152 147.57544,11.02872 148.24424,10.74472 C148.91184,10.46072 149.64824,10.31712 150.43144,10.31712 C151.55304,10.31712 152.41424,10.59432 152.99104,11.14032 C153.56344,11.68312 153.85384,12.52992 153.85384,13.65752 L153.85384,13.87912 C152.69304,13.88392 151.55184,13.92912 150.45864,14.01312 C149.29024,14.10352 148.23864,14.30752 147.33504,14.61992 C146.40904,14.93872 145.65784,15.43032 145.10144,16.08192 C144.53424,16.74512 144.24704,17.64992 144.24704,18.77112 C144.24704,19.58032 144.40864,20.27792 144.72704,20.84472 C145.04144,21.40392 145.44384,21.86792 145.92344,22.22272 C146.39824,22.57352 146.93184,22.83112 147.50944,22.98672 C148.07904,23.13872 148.64104,23.21672 149.17984,23.21672 C150.31544,23.21672 151.30344,23.00352 152.11584,22.58512 C152.79704,22.23352 153.42424,21.68872 153.98504,20.96152 C153.99504,21.16152 154.01024,21.36352 154.02984,21.56472 C154.06904,21.96632 154.11904,22.34152 154.17824,22.67872 L154.20944,22.86072 L156.43064,22.86072 L156.37904,22.59712 Z M153.85384,16.73832 C153.85384,17.32272 153.75984,17.88672 153.57584,18.41392 C153.39144,18.93872 153.12144,19.40832 152.77264,19.80992 C152.42664,20.20912 151.99104,20.52992 151.47864,20.76312 C150.96624,20.99632 150.36944,21.11432 149.70384,21.11432 C149.33424,21.11432 148.96344,21.07152 148.60304,20.98712 C148.25024,20.90392 147.92624,20.76432 147.63904,20.57272 C147.35984,20.38592 147.13344,20.13712 146.96704,19.83312 C146.80224,19.53312 146.71864,19.15032 146.71864,18.69632 C146.71864,18.10312 146.90504,17.64272 147.28784,17.28712 C147.68784,16.91592 148.21384,16.62832 148.84984,16.43072 C149.49984,16.22912 150.23904,16.09232 151.04624,16.02432 C151.86144,15.95592 152.68304,15.92152 153.48824,15.92152 L153.85384,15.92152 L153.85384,16.73832 Z" id="Fill-11"></path>
            <path d="M123.83744,8.54048 L123.83744,10.54688 C123.31344,9.86328 122.64704,9.31688 121.84944,8.91888 C120.87264,8.43208 119.86184,8.18488 118.84304,8.18488 C117.75264,8.18488 116.74944,8.38008 115.86144,8.76608 C114.97424,9.15208 114.20584,9.68808 113.57744,10.35808 C112.94904,11.02888 112.45424,11.82088 112.10584,12.71288 C111.75784,13.60608 111.58104,14.57088 111.58104,15.58208 C111.58104,16.61328 111.75784,17.58888 112.10584,18.48048 C112.45424,19.37328 112.95024,20.15128 113.58024,20.79408 C114.20904,21.43488 114.97784,21.94528 115.86504,22.31048 C116.75104,22.67608 117.75344,22.86088 118.84304,22.86088 C119.86104,22.86088 120.87744,22.61408 121.86344,22.12688 C122.66384,21.73128 123.32584,21.19568 123.83744,20.53008 L123.83744,22.52128 C123.83744,23.24568 123.74264,23.93808 123.55544,24.57808 C123.37104,25.20648 123.07784,25.76288 122.68184,26.23248 C122.28824,26.69728 121.76264,27.07168 121.11864,27.34368 C120.46824,27.61848 119.66344,27.75728 118.72744,27.75728 C117.71944,27.75728 116.74904,27.51568 115.84224,27.04048 C114.93264,26.56248 114.20704,25.97448 113.68704,25.29208 L113.53184,25.08848 L111.79024,26.97048 L111.93224,27.12168 C112.76464,28.00968 113.77824,28.71568 114.94504,29.21848 C116.11104,29.72248 117.35384,29.97728 118.63904,29.97728 C120.17904,29.97728 121.45544,29.73048 122.43224,29.24328 C123.40864,28.75608 124.19264,28.13688 124.76264,27.40368 C125.33264,26.67008 125.72864,25.85328 125.93824,24.97568 C126.14544,24.11128 126.25064,23.28568 126.25064,22.52128 L126.25064,8.54048 L123.83744,8.54048 Z M123.69304,17.64968 C123.44304,18.28168 123.09184,18.83008 122.64904,19.28088 C122.20704,19.73208 121.67344,20.08488 121.06344,20.32928 C120.45144,20.57488 119.77304,20.69888 119.04664,20.69888 C118.26504,20.69888 117.56024,20.56048 116.95024,20.28728 C116.34144,20.01528 115.82264,19.64008 115.40864,19.17048 C114.99344,18.70128 114.66984,18.14728 114.44704,17.52328 C114.22384,16.89768 114.11064,16.22448 114.11064,15.52248 C114.11064,14.82088 114.22384,14.14768 114.44704,13.52248 C114.66944,12.89968 114.99304,12.34528 115.40864,11.87448 C115.82304,11.40568 116.34304,11.02448 116.95304,10.74168 C117.56144,10.45968 118.26584,10.31688 119.04664,10.31688 C119.76944,10.31688 120.44464,10.45968 121.05304,10.74168 C121.66584,11.02528 122.20184,11.40808 122.64664,11.88008 C123.09024,12.35168 123.44304,12.90648 123.69344,13.53048 C123.94344,14.15168 124.07024,14.82208 124.07024,15.52248 C124.07024,16.30248 123.94304,17.01808 123.69304,17.64968 Z" id="Fill-12"></path>
            <path d="M130.06324,5.06764 C129.66004,5.06764 129.28844,4.91364 128.95804,4.61044 C128.62084,4.30164 128.44924,3.90244 128.44924,3.42364 C128.44924,2.94484 128.62004,2.54564 128.95804,2.23604 C129.28764,1.93324 129.66004,1.77964 130.06324,1.77964 C130.46604,1.77964 130.83804,1.93324 131.16844,2.23604 C131.50604,2.54564 131.67684,2.94484 131.67684,3.42364 C131.67684,3.90244 131.50564,4.30164 131.16844,4.61084 C130.83764,4.91364 130.46564,5.06764 130.06324,5.06764" id="Fill-13"></path>
            <path d="M107.77904,5.06764 C107.37664,5.06764 107.00464,4.91364 106.67344,4.61044 C106.33664,4.30164 106.16544,3.90244 106.16544,3.42364 C106.16544,2.94484 106.33624,2.54564 106.67344,2.23604 C107.00424,1.93324 107.37624,1.77964 107.77904,1.77964 C108.18264,1.77964 108.55464,1.93324 108.88464,2.23604 C109.22224,2.54564 109.39304,2.94484 109.39304,3.42364 C109.39304,3.90244 109.22144,4.30164 108.88424,4.61084 C108.55384,4.91364 108.18224,5.06764 107.77904,5.06764" id="Fill-14"></path>
            <polygon id="Fill-15" points="0.4076 22.86064 2.8204 22.86064 2.8204 8.54064 0.4076 8.54064"></polygon>
            <path d="M2.71928,2.236 C2.38928,1.9328 2.01728,1.7796 1.61408,1.7796 C1.21088,1.7796 0.83888,1.9328 0.50848,2.236 C0.17128,2.5456 8e-05,2.9448 8e-05,3.4236 C8e-05,3.9024 0.17128,4.302 0.50848,4.6104 C0.83928,4.9136 1.21128,5.068 1.61408,5.068 C2.01688,5.068 2.38848,4.9136 2.71928,4.6104 C3.05688,4.302 3.22768,3.9024 3.22768,3.4236 C3.22768,2.9448 3.05688,2.5456 2.71928,2.236" id="Fill-16"></path>
            <path d="M12.26556,8.18464 C11.26076,8.18464 10.29476,8.44864 9.39236,8.96984 C8.70476,9.36704 8.15556,9.86264 7.75316,10.44784 C7.74876,10.30944 7.74316,10.15904 7.73636,9.99704 C7.71636,9.53584 7.68676,9.11224 7.64796,8.73864 L7.62716,8.54024 L5.30516,8.54024 L5.32436,8.77984 C5.36276,9.24784 5.39156,9.78304 5.41076,10.37024 C5.43116,10.98024 5.44076,11.45304 5.44076,11.81584 L5.44076,22.86064 L7.85276,22.86064 L7.85276,15.52264 C7.85276,14.62304 7.96636,13.83464 8.19076,13.17864 C8.41316,12.52664 8.71236,11.98264 9.07956,11.56144 C9.44316,11.14424 9.86356,10.82904 10.32796,10.62464 C10.79276,10.42064 11.27756,10.31664 11.76996,10.31664 C12.45196,10.31664 13.02196,10.42864 13.46516,10.64984 C13.90396,10.86824 14.25756,11.17744 14.51636,11.56784 C14.78036,11.96784 14.97036,12.45464 15.08076,13.01544 C15.19396,13.59424 15.25116,14.24824 15.25116,14.95944 L15.25116,22.86064 L17.66396,22.86064 L17.66396,14.12864 C17.66396,12.36464 17.21036,10.91944 16.31796,9.83504 C15.41436,8.73984 14.05116,8.18464 12.26556,8.18464" id="Fill-17"></path>
            <polygon id="Fill-18" points="25.59196 19.96764 21.28676 8.54044 18.60236 8.54044 24.33956 22.86084 26.81476 22.86084 32.52196 8.54044 29.92636 8.54044"></polygon>
            <path d="M44.9642,10.29008 C44.403,9.64728 43.6922,9.12968 42.8518,8.75248 C42.0126,8.37528 41.0326,8.18448 39.9402,8.18448 C38.945,8.18448 38.0054,8.37528 37.1474,8.75128 C36.2882,9.12848 35.5302,9.65848 34.8942,10.32728 C34.2566,10.99728 33.751,11.79968 33.3926,12.71208 C33.0346,13.62448 32.853,14.63008 32.853,15.70048 C32.853,16.77408 33.0398,17.78048 33.4082,18.69048 C33.7762,19.60288 34.2858,20.40488 34.9234,21.07328 C35.5626,21.74528 36.3362,22.27608 37.223,22.65128 C38.109,23.02608 39.0822,23.21608 40.1154,23.21608 C41.2662,23.21608 42.3594,22.98008 43.3638,22.51408 C44.3706,22.04768 45.3034,21.26808 46.1366,20.19728 L46.2722,20.02328 L44.4254,18.54808 L44.2978,18.75648 C43.9286,19.35848 43.379,19.89928 42.6626,20.36368 C41.9538,20.82208 41.097,21.05488 40.1154,21.05488 C39.4502,21.05488 38.823,20.92648 38.2514,20.67328 C37.6758,20.41768 37.1698,20.06928 36.7462,19.63648 C36.3226,19.20608 35.9854,18.69128 35.7446,18.10688 C35.531,17.58848 35.4038,17.03368 35.3642,16.45488 L46.6266,16.45488 L46.6482,16.25848 C46.6678,16.07328 46.6782,15.89528 46.6782,15.73048 L46.6782,15.28568 C46.6782,14.31728 46.5322,13.39488 46.2442,12.54408 C45.955,11.69048 45.5246,10.93208 44.9642,10.29008 Z M35.4038,14.41208 C35.4602,13.93328 35.5926,13.46648 35.7982,13.02208 C36.0386,12.50568 36.3662,12.03848 36.7734,11.63288 C37.1778,11.22968 37.6554,10.90528 38.1918,10.66928 C38.7246,10.43528 39.313,10.31648 39.9402,10.31648 C41.287,10.31648 42.3354,10.72648 43.0554,11.53408 C43.7382,12.30008 44.1302,13.26728 44.2222,14.41208 L35.4038,14.41208 Z" id="Fill-19"></path>
            <path d="M57.90268,15.93072 C57.11188,15.26792 55.88068,14.75912 54.24268,14.41672 C53.14868,14.18632 52.34148,13.90232 51.84228,13.57232 C51.37988,13.26752 51.15468,12.83872 51.15468,12.26072 C51.15468,11.92752 51.22788,11.63672 51.37148,11.39632 C51.51788,11.15032 51.71508,10.94432 51.95828,10.78592 C52.20548,10.62312 52.49548,10.50392 52.81948,10.42992 C53.15188,10.35472 53.48868,10.31672 53.82068,10.31672 C54.53268,10.31672 55.17588,10.49072 55.73148,10.83312 C56.28628,11.17632 56.70428,11.62072 56.97588,12.15432 L57.09348,12.38592 L58.96548,10.95552 L58.86988,10.78632 C58.40308,9.95992 57.69588,9.31152 56.76708,8.85832 C55.84748,8.41152 54.88548,8.18472 53.90788,8.18472 C53.27268,8.18472 52.64668,8.26672 52.04668,8.42952 C51.44068,8.59472 50.89388,8.84992 50.42068,9.18832 C49.93908,9.53312 49.54948,9.97752 49.26388,10.50872 C48.97588,11.04272 48.82988,11.69232 48.82988,12.43872 C48.82988,13.12832 48.96708,13.71512 49.23788,14.18152 C49.50468,14.64272 49.84828,15.02872 50.25828,15.33032 C50.66268,15.62992 51.10948,15.86032 51.58588,16.01472 C52.04828,16.16512 52.48948,16.29152 52.89668,16.38992 C54.17308,16.70032 55.16068,17.03792 55.83068,17.39352 C56.44748,17.72152 56.74748,18.19592 56.74748,18.84392 C56.74748,19.25752 56.66948,19.60432 56.51508,19.87512 C56.35828,20.15072 56.14588,20.38032 55.88348,20.55872 C55.61708,20.73952 55.30068,20.86792 54.94268,20.94032 C54.57108,21.01632 54.17388,21.05512 53.76228,21.05512 C52.98988,21.05512 52.27388,20.85592 51.63228,20.46392 C50.98748,20.06992 50.49388,19.57792 50.16508,19.00032 L50.04388,18.78712 L48.10988,20.24632 L48.22668,20.42152 C48.86788,21.38112 49.70148,22.09552 50.70508,22.54512 C51.69908,22.99032 52.73708,23.21632 53.79148,23.21632 C54.42748,23.21632 55.06628,23.13912 55.69028,22.98792 C56.32588,22.83392 56.90428,22.57312 57.40908,22.21272 C57.91788,21.85032 58.33628,21.37672 58.65268,20.80592 C58.97068,20.23072 59.13188,19.52072 59.13188,18.69592 C59.13188,17.54512 58.71828,16.61432 57.90268,15.93072" id="Fill-20"></path>
            <path d="M69.09388,20.45552 C68.83588,20.58712 68.56108,20.69152 68.27788,20.76552 C67.69348,20.91872 67.16348,20.90392 66.71468,20.78112 C66.49748,20.72152 66.31508,20.61392 66.15628,20.45232 C65.99788,20.29112 65.87428,20.05872 65.78868,19.76072 C65.69828,19.44792 65.65228,19.03992 65.65228,18.54712 L65.65228,10.67232 L69.49548,10.67232 L69.49548,8.54072 L65.65228,8.54072 L65.65228,4.62632 L63.23908,4.62632 L63.23908,8.54072 L60.41548,8.54072 L60.41548,10.67232 L63.23908,10.67232 L63.23908,19.11152 C63.23908,19.91232 63.35908,20.57312 63.59468,21.07512 C63.83228,21.57832 64.14228,21.98392 64.51628,22.28032 C64.88908,22.57552 65.29908,22.77912 65.73468,22.88432 C66.15868,22.98712 66.56788,23.03872 66.94908,23.03872 C67.40348,23.03872 67.83308,23.00232 68.22548,22.93112 C68.61908,22.85872 68.99988,22.75032 69.35708,22.60832 L69.50308,22.55112 L69.39028,20.30472 L69.09388,20.45552 Z" id="Fill-21"></path>
            <path d="M74.12984,2.236 C73.79944,1.9328 73.42784,1.7796 73.02424,1.7796 C72.62144,1.7796 72.24864,1.9328 71.91904,2.236 C71.58144,2.5456 71.41064,2.9448 71.41064,3.4236 C71.41064,3.9024 71.58144,4.302 71.91904,4.6104 C72.24944,4.9136 72.62144,5.068 73.02424,5.068 C73.42704,5.068 73.79864,4.9136 74.12984,4.6104 C74.46704,4.302 74.63824,3.9024 74.63824,3.4236 C74.63824,2.9448 74.46704,2.5456 74.12984,2.236" id="Fill-22"></path>
            <polygon id="Fill-23" points="71.818 22.86064 74.2308 22.86064 74.2308 8.54064 71.818 8.54064"></polygon>
            <path d="M87.00836,10.7864 C86.54156,9.9604 85.83356,9.3112 84.90476,8.8588 C83.98556,8.4112 83.02396,8.1848 82.04636,8.1848 C81.41076,8.1848 80.78476,8.2672 80.18476,8.4296 C79.57876,8.5948 79.03236,8.85 78.55836,9.1884 C78.07756,9.5328 77.68796,9.9772 77.40156,10.5088 C77.11396,11.0428 76.96756,11.6928 76.96756,12.4388 C76.96756,13.128 77.10516,13.7148 77.37596,14.182 C77.64316,14.6424 77.98636,15.0288 78.39676,15.3308 C78.66596,15.5296 78.95556,15.6952 79.25836,15.8316 L81.47756,14.1892 C80.82516,14.0044 80.32116,13.7976 79.97996,13.5728 C79.51756,13.2676 79.29316,12.8384 79.29316,12.2608 C79.29316,11.9276 79.36596,11.6368 79.50916,11.3964 C79.65596,11.1504 79.85356,10.9448 80.09636,10.7856 C80.34396,10.6232 80.63356,10.5032 80.95796,10.4296 C81.29036,10.3548 81.62716,10.3168 81.95836,10.3168 C82.67076,10.3168 83.31396,10.4908 83.86996,10.8332 C84.42476,11.1764 84.84276,11.6212 85.11396,12.1544 L85.23156,12.3864 L87.10396,10.9556 L87.00836,10.7864 Z" id="Fill-24"></path>
            <path d="M86.04116,15.93092 C85.67956,15.62812 85.21356,15.35172 84.65716,15.10972 L82.41396,16.76972 L82.67236,16.85692 C83.19156,17.03212 83.62756,17.21332 83.96916,17.39372 C84.58596,17.72172 84.88556,18.19572 84.88556,18.84412 C84.88556,19.25732 84.80756,19.60452 84.65356,19.87492 C84.49676,20.15092 84.28396,20.38052 84.02156,20.55892 C83.75516,20.73972 83.43916,20.86812 83.08036,20.94052 C82.70876,21.01652 82.31196,21.05532 81.90036,21.05532 C81.12836,21.05532 80.41196,20.85612 79.77036,20.46372 C79.12556,20.07012 78.63236,19.57772 78.30356,19.00052 L78.18196,18.78732 L76.24796,20.24612 L76.36476,20.42132 C77.00556,21.38132 77.83996,22.09572 78.84356,22.54532 C79.83676,22.99052 80.87516,23.21652 81.92996,23.21652 C82.56556,23.21652 83.20436,23.13932 83.82836,22.98812 C84.46396,22.83412 85.04236,22.57332 85.54716,22.21292 C86.05596,21.85052 86.47436,21.37692 86.79076,20.80612 C87.10836,20.23092 87.26996,19.52092 87.26996,18.69612 C87.26996,17.54532 86.85676,16.61452 86.04116,15.93092" id="Fill-25"></path>
        </g>
    </g>
</svg>