<?xml version="1.0" encoding="utf-8"?>
<!-- Generator: Adobe Illustrator 23.0.2, SVG Export Plug-In . SVG Version: 6.00 Build 0)  -->
<svg version="1.1" id="Layer_1" xmlns="http://www.w3.org/2000/svg" xmlns:xlink="http://www.w3.org/1999/xlink" x="0px" y="0px"
	 viewBox="0 0 380.8 169.9" style="enable-background:new 0 0 380.8 169.9;" xml:space="preserve">
<style type="text/css">
	.st0{fill:#FFFFFF;}
</style>
<title>tpo_logo_blue</title>
<path class="st0" d="M132.1,70.2c0,3.5-0.3,6.9-1,10.3c-0.6,3.1-1.7,6.2-3.4,8.9c-1.6,2.5-3.8,4.6-6.4,6.2c-8.9,5.2-20.4,2.5-26-6.2
	c-1.7-2.7-2.9-5.7-3.5-8.9c-0.7-3.4-1.1-6.8-1.1-10.3c0-3.5,0.3-7,1-10.5c0.6-3.2,1.8-6.2,3.5-9c1.6-2.6,3.8-4.7,6.4-6.3
	c3-1.7,6.4-2.6,9.8-2.4c3.4-0.1,6.7,0.7,9.6,2.4c2.6,1.6,4.8,3.8,6.5,6.4c1.7,2.8,2.9,5.8,3.6,9C131.8,63.2,132.2,66.7,132.1,70.2
	 M156.2,70.8c0-6-0.8-12-2.4-17.9c-1.4-5.4-3.9-10.5-7.2-15c-3.3-4.3-7.5-7.8-12.3-10.3c-5.5-2.7-11.6-4.1-17.7-3.9
	c-5.1-0.1-10.2,1-14.8,3.2c-4.6,2.3-8.5,5.9-11.1,10.4h-0.4l0.1-11.1H38.6V0H14.5v26.2H0v16h14.5v51.6c0,4.4,0.7,8,2.2,10.6
	c1.4,2.6,3.4,4.8,6,6.3c2.7,1.6,5.7,2.6,8.8,3c3.5,0.5,7,0.8,10.6,0.8c2.4,0,4.8-0.1,7.3-0.2c2.3-0.1,4.5-0.3,6.8-0.6V95.1
	c-1.2,0.2-2.4,0.4-3.5,0.5c-1.2,0.1-2.5,0.2-3.9,0.2c-4.1,0-6.8-0.7-8.1-2c-1.4-1.3-2-4-2-8.1V42.2l28.6-0.1l0.1,127.7h24.1v-67h0.3
	c2.8,4.2,6.7,7.5,11.2,9.7c4.7,2.2,9.8,3.3,14.9,3.3c11.2,0.4,22-4.7,28.8-13.7c3.3-4.3,5.7-9.2,7.2-14.4
	C155.4,82.3,156.2,76.6,156.2,70.8"/>
<path class="st0" d="M188,80.2c0.6,3.2,1.8,6.2,3.5,9c1.6,2.6,3.8,4.8,6.5,6.3c3.1,1.7,6.6,2.5,10.1,2.4c3.5,0.1,7.1-0.7,10.2-2.4
	c2.7-1.5,4.9-3.7,6.6-6.3c1.7-2.8,2.8-5.8,3.5-9c0.7-3.4,1-6.8,1-10.2c0-3.5-0.3-6.9-1-10.3c-0.6-3.2-1.8-6.2-3.5-9
	c-1.7-2.6-3.9-4.8-6.6-6.3c-3.1-1.7-6.7-2.5-10.2-2.4c-3.5-0.1-7,0.7-10.1,2.4c-2.6,1.6-4.9,3.7-6.5,6.3c-1.7,2.8-2.9,5.8-3.5,9
	c-0.7,3.4-1,6.8-1,10.3C187,73.5,187.3,76.9,188,80.2 M166.1,50.9c3.9-11,12.4-19.7,23.3-23.9c5.9-2.3,12.2-3.4,18.6-3.3
	c6.4-0.1,12.7,1,18.7,3.3c10.9,4.1,19.5,12.9,23.4,23.9c2.2,6.1,3.3,12.5,3.2,19c0.1,6.5-1,12.9-3.2,18.9c-2,5.4-5.1,10.4-9.1,14.5
	c-4,4.1-8.9,7.2-14.3,9.2c-6,2.2-12.3,3.3-18.7,3.2c-6.3,0.1-12.6-1-18.6-3.2c-5.3-2-10.2-5.2-14.2-9.2c-4-4.1-7.1-9.1-9.1-14.5
	c-2.2-6.1-3.3-12.5-3.2-18.9C162.8,63.5,163.9,57.1,166.1,50.9"/>
<polygon class="st0" points="101.6,129.5 103.9,129.5 103.9,136.2 107.7,136.2 107.7,138.3 103.9,138.3 103.9,154.4 101.6,154.4 
	101.6,138.3 91.2,138.3 91.2,136.2 101.6,136.2 "/>
<path class="st0" d="M111,129.2h2.3v10.3c0.8-1.1,1.9-2.1,3.1-2.8c1.1-0.6,2.4-0.9,3.7-0.9c1.3,0,2.5,0.3,3.6,1
	c1,0.7,1.9,1.6,2.4,2.8c0.6,1.8,0.8,3.6,0.8,5.5v9.4h-2.3v-8.7c0.1-1.4,0-2.8-0.2-4.2c-0.2-1.1-0.8-2-1.6-2.7c-0.9-0.6-1.9-1-3-0.9
	c-1.4,0-2.8,0.5-3.8,1.4c-1.1,0.9-1.9,2.1-2.2,3.5c-0.3,1.7-0.4,3.3-0.3,5v6.7H111V129.2z"/>
<path class="st0" d="M147.2,143.5c-0.2-1.1-0.7-2.1-1.4-3c-0.6-0.8-1.4-1.4-2.4-1.8c-1-0.5-2-0.7-3.1-0.7c-1.7,0-3.3,0.6-4.6,1.7
	c-1.1,1-1.8,2.4-2.1,3.8L147.2,143.5z M147.2,148.3l2,1c-0.6,1.2-1.3,2.2-2.2,3.1c-0.8,0.8-1.8,1.4-2.9,1.8
	c-1.2,0.4-2.4,0.6-3.6,0.6c-2.7,0.1-5.2-0.9-7-2.9c-1.6-1.8-2.5-4.2-2.5-6.6c0-2.2,0.7-4.4,2.1-6.2c1.7-2.3,4.4-3.5,7.2-3.5
	c2.9-0.1,5.7,1.2,7.4,3.5c1.4,1.8,2.1,4,2,6.2h-16.3c0,1.9,0.7,3.8,2,5.2c1.2,1.3,3,2.1,4.8,2c0.9,0,1.8-0.2,2.7-0.5
	c0.8-0.3,1.6-0.7,2.2-1.3C146,150.2,146.7,149.3,147.2,148.3"/>
<path class="st0" d="M173.1,138c-1.9,0-3.8,0.8-5.1,2.2c-1.4,1.4-2.1,3.3-2.1,5.3c0,1.3,0.3,2.6,0.9,3.7c0.6,1.1,1.5,2,2.6,2.6
	c1.1,0.6,2.3,1,3.6,1c1.2,0,2.5-0.4,3.5-1c1.1-0.7,2-1.6,2.6-2.7c1.3-2.3,1.3-5.1,0-7.4C178,139.5,175.7,138.1,173.1,138
	 M163.7,136.2h2.3v3.4c0.8-1.2,1.9-2.2,3.2-2.9c1.2-0.6,2.6-1,4-1c2.5,0,4.9,1,6.6,2.8c1.8,1.8,2.8,4.2,2.8,6.7
	c0.1,2.5-0.9,5-2.7,6.8c-2.7,2.8-7,3.6-10.6,1.9c-1.3-0.7-2.4-1.6-3.3-2.7v9.8h-2.3L163.7,136.2z"/>
<path class="st0" d="M186.1,136.2h2.3v2.7c0.6-0.9,1.4-1.7,2.3-2.4c0.7-0.5,1.6-0.8,2.5-0.8c0.7,0,1.5,0.2,2.1,0.6l-1.2,2
	c-0.4-0.2-0.8-0.3-1.2-0.3c-0.9,0-1.7,0.4-2.3,1c-0.8,0.8-1.4,1.9-1.7,3c-0.4,2.1-0.5,4.2-0.4,6.3v6.1h-2.3L186.1,136.2z"/>
<path class="st0" d="M197,136.2h2.3v18.2H197V136.2z M198.2,128.7c0.5,0,1,0.2,1.4,0.6c0.4,0.4,0.6,0.9,0.6,1.4c0,0.5-0.2,1-0.6,1.4
	c-0.4,0.4-0.9,0.6-1.4,0.6c-0.5,0-1-0.2-1.4-0.6c-0.4-0.3-0.6-0.8-0.6-1.4c0-0.5,0.2-1,0.6-1.4C197.2,128.9,197.6,128.7,198.2,128.7
	"/>
<polygon class="st0" points="202.4,136.2 204.9,136.2 211,149.5 217.1,136.2 219.6,136.2 211.3,154.4 210.8,154.4 "/>
<path class="st0" d="M231.9,138c-2.6,0-5,1.4-6.2,3.6c-1.3,2.3-1.3,5.1,0,7.4c0.6,1.1,1.5,2.1,2.6,2.7c1.1,0.6,2.3,1,3.6,1
	c1.3,0,2.5-0.4,3.6-1c1.1-0.6,2-1.5,2.6-2.6c0.6-1.1,0.9-2.4,0.9-3.7c0-2-0.7-3.8-2.1-5.2C235.7,138.8,233.8,138.1,231.9,138
	 M241.3,136.3v18.2h-2.4v-3.1c-0.9,1.1-2,2-3.3,2.7c-3.6,1.7-7.9,0.9-10.6-1.9c-1.8-1.8-2.8-4.3-2.7-6.8c0-2.5,1-4.9,2.8-6.7
	c1.7-1.8,4.1-2.8,6.6-2.8c1.4,0,2.8,0.3,4.1,1c1.3,0.7,2.4,1.7,3.2,2.9v-3.4L241.3,136.3z"/>
<polygon class="st0" points="248.7,129.5 251,129.5 251,136.2 254.8,136.2 254.8,138.3 251,138.3 251,154.4 248.7,154.4 
	248.7,138.3 245.5,138.3 245.5,136.2 248.7,136.2 "/>
<path class="st0" d="M273.5,143.5c-0.2-1.1-0.7-2.1-1.4-3c-0.6-0.8-1.4-1.4-2.4-1.8c-1-0.5-2-0.7-3.1-0.7c-1.7,0-3.3,0.6-4.6,1.7
	c-1,1-1.8,2.4-2.1,3.8L273.5,143.5z M273.5,148.3l2,1c-0.6,1.2-1.3,2.2-2.2,3.1c-0.8,0.8-1.8,1.4-2.9,1.8c-1.2,0.4-2.4,0.6-3.6,0.6
	c-2.7,0.1-5.2-0.9-7-2.9c-1.6-1.8-2.5-4.2-2.5-6.6c0-2.2,0.8-4.4,2.2-6.1c1.7-2.3,4.4-3.5,7.2-3.5c2.9-0.1,5.7,1.2,7.4,3.5
	c1.4,1.8,2.1,4,2,6.2h-16.4c0,1.9,0.7,3.8,2,5.2c1.2,1.3,3,2.1,4.8,2c0.9,0,1.8-0.2,2.7-0.5c0.8-0.3,1.6-0.7,2.2-1.3
	C272.3,150.2,273,149.3,273.5,148.3"/>
<path class="st0" d="M298.5,138c-1.9,0-3.7,0.8-5,2.2c-1.4,1.4-2.1,3.3-2.1,5.2c0,1.3,0.3,2.6,1,3.7c0.6,1.1,1.5,2,2.5,2.7
	c1.1,0.6,2.3,0.9,3.6,0.9c1.2,0,2.5-0.3,3.5-0.9c1.1-0.6,2-1.6,2.6-2.7c0.6-1.1,1-2.4,1-3.7c0-2-0.7-3.8-2.1-5.2
	C302.2,138.8,300.4,138,298.5,138 M298.5,135.8c2.6-0.1,5.2,1,7,3c3.4,3.8,3.3,9.5-0.1,13.2c-3.7,3.8-9.7,3.8-13.5,0.1
	c0,0-0.1-0.1-0.1-0.1c-3.5-3.7-3.6-9.4-0.1-13.2C293.3,136.8,295.8,135.7,298.5,135.8"/>
<path class="st0" d="M319.9,129.2v2.2c-0.7-0.3-1.4-0.5-2.2-0.5c-0.4,0-0.8,0.1-1.1,0.3c-0.3,0.1-0.5,0.4-0.6,0.6
	c-0.1,0.6-0.2,1.3-0.1,1.9v2.5h3.8v2h-3.8v16.2h-2.3v-16.2h-2.4v-2h2.4v-2.8c-0.1-0.9,0.1-1.9,0.3-2.8c0.2-0.6,0.7-1,1.2-1.3
	c0.6-0.4,1.3-0.5,2.1-0.5C318.1,128.8,319,128.9,319.9,129.2"/>
<path class="st0" d="M330.7,129.2v2.2c-0.7-0.3-1.4-0.5-2.2-0.5c-0.4,0-0.8,0.1-1.1,0.3c-0.3,0.1-0.5,0.4-0.6,0.6
	c-0.1,0.6-0.2,1.3-0.1,1.9v2.5h3.8v2h-3.8v16.2h-2.3v-16.2H322v-2h2.4v-2.8c-0.1-0.9,0.1-1.9,0.4-2.8c0.2-0.6,0.7-1,1.2-1.3
	c0.6-0.4,1.3-0.5,2.1-0.5C329,128.8,329.9,128.9,330.7,129.2"/>
<path class="st0" d="M333.7,136.2h2.3v18.2h-2.3L333.7,136.2z M334.8,128.7c0.5,0,1,0.2,1.4,0.6c0.4,0.4,0.6,0.9,0.6,1.4
	c0,0.5-0.2,1-0.6,1.4c-0.4,0.4-0.9,0.6-1.4,0.6c-0.5,0-1-0.2-1.4-0.6c-0.4-0.4-0.6-0.8-0.6-1.4c0-0.5,0.2-1,0.6-1.4
	C333.8,128.9,334.3,128.7,334.8,128.7"/>
<path class="st0" d="M358.4,140l-1.9,1.2c-1.5-2.1-4-3.3-6.6-3.2c-2.1-0.1-4,0.7-5.5,2.1c-1.4,1.4-2.2,3.2-2.2,5.2
	c0,1.3,0.3,2.6,1,3.8c0.7,1.2,1.6,2.1,2.8,2.7c3.6,1.9,8,1,10.5-2.2l1.9,1.2c-0.9,1.3-2.1,2.3-3.5,3c-1.6,0.7-3.3,1.1-5,1.1
	c-2.7,0.1-5.2-0.9-7.2-2.7c-1.8-1.7-2.9-4.2-2.8-6.7c0-1.7,0.5-3.4,1.3-4.9c0.9-1.5,2.1-2.7,3.7-3.5c1.6-0.8,3.4-1.3,5.2-1.3
	c1.2,0,2.4,0.2,3.5,0.5c1,0.3,2,0.8,2.9,1.4C357.3,138.3,357.9,139.1,358.4,140"/>
<path class="st0" d="M378.2,143.5c-0.2-1.1-0.7-2.1-1.4-3c-0.6-0.8-1.4-1.4-2.4-1.8c-1-0.5-2-0.7-3.1-0.7c-1.7,0-3.3,0.6-4.6,1.7
	c-1,1-1.8,2.4-2.1,3.8L378.2,143.5z M378.2,148.3l2,1c-0.6,1.2-1.3,2.2-2.2,3.1c-0.8,0.8-1.8,1.4-2.9,1.8c-1.2,0.4-2.4,0.6-3.6,0.6
	c-2.7,0.1-5.2-0.9-7-2.9c-1.6-1.8-2.5-4.2-2.5-6.6c0-2.2,0.7-4.4,2.1-6.2c1.7-2.3,4.4-3.5,7.2-3.5c2.9-0.1,5.7,1.2,7.4,3.5
	c1.4,1.8,2.1,4,2,6.2h-16.4c0,1.9,0.7,3.8,2,5.2c1.3,1.3,3,2.1,4.8,2c0.9,0,1.8-0.2,2.7-0.5c0.8-0.3,1.6-0.7,2.2-1.3
	C377,150.2,377.7,149.3,378.2,148.3"/>
</svg>
